<svg xmlns="http://www.w3.org/2000/svg" width="768" height="460" viewBox="0 0 768 460">
  <g id="Gruppe_1487" data-name="Gruppe 1487" transform="translate(-256 -1270)">
    <g id="Gruppe_1067" data-name="Gruppe 1067" transform="translate(256 1270)">
      <rect id="Rechteck_166" data-name="Rechteck 166" width="768" height="460" fill="#efece3"/>
    </g>
    <g id="Gruppe_1405" data-name="Gruppe 1405" transform="translate(527 1443)">
      <g id="Gruppe_284" data-name="Gruppe 284" transform="translate(55.491 102.722)">
        <path id="Pfad_315" data-name="Pfad 315" d="M524.052,427.223h2.479v10.133h-2.479Z" transform="translate(-524.052 -427.053)" fill="#161615"/>
        <path id="Pfad_316" data-name="Pfad 316" d="M537.958,427.028a5.28,5.28,0,0,1,3.8,1.431l-1.148,1.871a4.247,4.247,0,0,0-2.535-1.034,2.738,2.738,0,0,0-2.861,2.891,2.881,2.881,0,0,0,2.861,3.047,4.154,4.154,0,0,0,2.692-1.246l1.274,1.814a5.557,5.557,0,0,1-4.079,1.7,5.081,5.081,0,0,1-5.311-5.258A5.153,5.153,0,0,1,537.958,427.028Z" transform="translate(-525.17 -427.028)" fill="#161615"/>
        <path id="Pfad_317" data-name="Pfad 317" d="M548.846,427.223h6.345v2.126h-3.866v1.843h3.087v2.126h-3.087v1.913h4.065v2.126h-6.545Z" transform="translate(-527.277 -427.053)" fill="#161615"/>
        <path id="Pfad_318" data-name="Pfad 318" d="M574.483,427.028a5.277,5.277,0,0,1,3.8,1.431l-1.147,1.871A4.251,4.251,0,0,0,574.6,429.3a2.737,2.737,0,0,0-2.861,2.891,2.881,2.881,0,0,0,2.861,3.047,4.155,4.155,0,0,0,2.692-1.246l1.273,1.814a5.555,5.555,0,0,1-4.079,1.7,5.081,5.081,0,0,1-5.311-5.258A5.153,5.153,0,0,1,574.483,427.028Z" transform="translate(-529.921 -427.028)" fill="#161615"/>
        <path id="Pfad_319" data-name="Pfad 319" d="M585.371,427.223H588.9a5.223,5.223,0,0,1,1.969.241,2.946,2.946,0,0,1,1.869,2.948,3.082,3.082,0,0,1-1.515,2.763v.029a5.719,5.719,0,0,1,.383.609l1.968,3.543H590.81l-1.8-3.416h-1.161v3.416h-2.479Zm3.555,4.592a1.159,1.159,0,0,0,1.288-1.247c0-.765-.283-1.219-1.529-1.219h-.836v2.466Z" transform="translate(-532.028 -427.053)" fill="#161615"/>
        <path id="Pfad_320" data-name="Pfad 320" d="M600.2,427.223h6.345v2.126h-3.867v1.843h3.087v2.126h-3.087v1.913h4.065v2.126H600.2Z" transform="translate(-533.957 -427.053)" fill="#161615"/>
        <path id="Pfad_321" data-name="Pfad 321" d="M618.805,435.23h-3.159l-.609,2.126h-2.55l3.442-10.133h2.605l3.442,10.133h-2.549Zm-1.587-5.7s-.226,1.105-.411,1.744l-.58,1.969h2l-.566-1.969c-.185-.638-.411-1.744-.411-1.744Z" transform="translate(-535.555 -427.053)" fill="#161615"/>
        <path id="Pfad_322" data-name="Pfad 322" d="M629.158,427.223h2.692l1.473,4.28c.227.652.51,1.672.51,1.672h.028s.284-1.02.511-1.672l1.472-4.28h2.692l.821,10.133h-2.478l-.311-4.564a15.084,15.084,0,0,1,0-1.7h-.029s-.339,1.063-.566,1.7l-1.062,2.934h-2.124l-1.062-2.934c-.227-.637-.566-1.7-.566-1.7h-.029a15.117,15.117,0,0,1,0,1.7l-.312,4.564h-2.492Z" transform="translate(-537.615 -427.053)" fill="#161615"/>
        <path id="Pfad_323" data-name="Pfad 323" d="M647.157,427.223H653.5v2.126h-3.867v1.843h3.087v2.126h-3.087v1.913H653.7v2.126h-6.544Z" transform="translate(-540.064 -427.053)" fill="#161615"/>
        <path id="Pfad_324" data-name="Pfad 324" d="M660.626,427.223h3.527a5.223,5.223,0,0,1,1.969.241,2.946,2.946,0,0,1,1.869,2.948,3.084,3.084,0,0,1-1.515,2.763v.029a5.694,5.694,0,0,1,.383.609l1.968,3.543h-2.761l-1.8-3.416H663.1v3.416h-2.479Zm3.555,4.592a1.159,1.159,0,0,0,1.289-1.247c0-.765-.283-1.219-1.529-1.219H663.1v2.466Z" transform="translate(-541.816 -427.053)" fill="#161615"/>
        <path id="Pfad_325" data-name="Pfad 325" d="M676.89,433.2l-3.343-5.981h2.82l1.147,2.437c.326.695.609,1.46.609,1.46h.029s.284-.765.61-1.46l1.132-2.437h2.819l-3.343,5.981v4.152H676.89Z" transform="translate(-543.497 -427.053)" fill="#161615"/>
      </g>
      <g id="Gruppe_285" data-name="Gruppe 285" transform="translate(0)">
        <path id="Pfad_326" data-name="Pfad 326" d="M655.623,365.409a1.32,1.32,0,0,0-2.356-.274c-1.921,3.166-6.076,6.7-8,6.655-3.562-.086-3.314-4.408-2.282-7.918a5.016,5.016,0,0,0,.689-1.876,1.14,1.14,0,0,0-.01-.121l8.518-23.5a2.123,2.123,0,0,0-1.671-2.835c-3.478-.483-9.711,1.6-10.518,3.8l-7.694,21.03a25.6,25.6,0,0,0-1.45,5.678c-.051.585-.107,1.427-.142,2.233a9.99,9.99,0,0,1-5.453,1.517,7.839,7.839,0,0,1-2.673-.481c3.9-7.264,7.027-15.656,6.513-21.211-.665-7.179-6.952-10.346-11.5-10.51-6.1-.218-11.979,4.571-11.979,4.571s5.858-15.406,8.429-23.007c.237-.761.819-1.621-.281-2.693s-5.337-.136-7.838.735c-1.246.434-3.446,1.621-3.915,3.047-5.682,15.759-14.571,38.953-15.493,47.294a13.776,13.776,0,0,0,.161,4.116c-2.8,3.313-5.427,5.435-7.325,5.522-2.483.114-2.508-4.3-1.506-7.007l9.366-25.9a2,2,0,0,0-1.568-2.725,14.5,14.5,0,0,0-8.674,2.049,5.2,5.2,0,0,0-2.346,2.833l-9.518,27.208c-2.893,3.219-5.187,4.915-7.69,5.109-4.683.361-5.211-5.215-2.648-11.508l7.347-20.187a2.031,2.031,0,0,0-1.761-2.768,15.479,15.479,0,0,0-8.711,2.34,5.366,5.366,0,0,0-2.275,2.761l-6.784,18.661c-3.411,9.205-1.508,17.544,8.932,17.275,4.94-.127,9.326-3.937,13.691-7.436.489,3.881,2.779,6.682,8.16,6.436,5.342-.245,10.346-3.471,14.871-8.541,2.76,4.627,8.637,7.7,17.374,6.578a21.549,21.549,0,0,0,12.475-6.669c1.442.148,2.891.2,4.131.245a21.3,21.3,0,0,0,9.59-1.862c1.341,2.819,3.917,4.84,8.2,4.826,5.438-.018,12.145-3.619,15.315-9.582a4.746,4.746,0,0,0,.4-3.59C655.7,365.622,655.662,365.514,655.623,365.409Zm-43.751-.323c-.31-.011-.721-.122-1.031-.133-2.274-.082-6.555,3.515-6.632,5.532-.037.96.964,1.862,2.589,2.689-.641,1.156-2.887,3.708-4.9,3.708-3.347,0-4.231-3.748-4.215-6.342.035-5.6,2.645-13.029,5.253-18.083,1.986-3.847,6.362-7.561,10.019-7.43a3.785,3.785,0,0,1,3.781,3.982C616.557,353.662,614.682,359.321,611.872,365.086Z" transform="translate(-470.77 -309.922)" fill="#161615"/>
        <path id="Pfad_327" data-name="Pfad 327" d="M518.462,385.018c-3.071-4.9-3.755-7.93-8.314-11.267,12.1-3.336,22.332-17,22.1-28-.344-16.45-17.686-23.423-36.827-20.311-23.993,3.9-35.116,17.436-35.16,32.28-.015,4.955.99,9.221,4.045,12.451a2.587,2.587,0,0,0,2.77.659c3.632-1.4,6.573-4.062,7.585-6.594a2.2,2.2,0,0,0-.151-1.795,16.5,16.5,0,0,1-2.165-7.768c.02-6.795,3.792-13.927,15.047-17.79l-19.861,65.867a1.94,1.94,0,0,0,1.535,2.4,13.734,13.734,0,0,0,10.4-2.808,8.373,8.373,0,0,0,2.753-4.224l6.31-21.685c2.936-.326,6.578-1.235,9.231-1.082a11.469,11.469,0,0,1,5.6,4.311,28.38,28.38,0,0,1,4.455,9.33c2.417,8.39,7.009,14.075,14.055,14.53,2.248.145,6.321-.051,9.425-2.575a8.142,8.142,0,0,0,2.175-8.922C528.693,392.572,521.878,390.468,518.462,385.018Zm-14.73-17.075a39.344,39.344,0,0,1-13.081,2.525L501.127,334.8c10.349-1.691,17.636,4.687,17.785,12.117C519.119,357.325,510.12,365.231,503.733,367.943Z" transform="translate(-460.264 -311.053)" fill="#161615"/>
        <path id="Pfad_328" data-name="Pfad 328" d="M664.489,317.036c-4.177.41-7.486,3.734-7.388,7.424s3.562,6.349,7.741,5.939,7.485-3.733,7.388-7.423S668.666,316.626,664.489,317.036Z" transform="translate(-485.866 -310.052)" fill="#161615"/>
        <path id="Pfad_329" data-name="Pfad 329" d="M684.79,322.416a.584.584,0,0,0-.645.455,2.413,2.413,0,0,0,.881,2c1.16.925,3.347,1.273,5.636.689,3.843-.979,7.6-4.339,7.581-8.928-.005-1.392-.6-7.349-7.019-7.6-3.695-.146-7.757,2.357-7,6.855.551,3.25,3.9,4.008,5.179,3.82C689.312,320.8,687,322.581,684.79,322.416Z" transform="translate(-489.382 -309.019)" fill="#161615"/>
        <path id="Pfad_330" data-name="Pfad 330" d="M707.4,338.433a9.368,9.368,0,0,0-7.05-5.91,5.125,5.125,0,0,0-5.615,3.061,175.55,175.55,0,0,1-8.7,17.678c-2.946-.364-7.843,2.268-8.283,9.263a13.486,13.486,0,0,0,2.25,8.22c2.8,4.263,9.043,7.869,16.934,7.508a18.884,18.884,0,0,0,16.216-10.707,21.331,21.331,0,0,0,1.4-6.206C715.094,353.106,710.417,346.259,707.4,338.433Zm-5.166,23.3c-.339,5.163-3.526,8.464-7.749,8.658-3.558.163-5.982-1.886-6.458-4.687a7.778,7.778,0,0,0,3.776-5.984,6.037,6.037,0,0,0-1.37-4.256c2.331-4.09,4.6-8.513,6.625-12.922C698.907,349.517,702.614,355.907,702.232,361.737Z" transform="translate(-488.55 -312.053)" fill="#161615"/>
      </g>
    </g>
  </g>
</svg>
