<?xml version="1.0" encoding="utf-8"?>
<!-- Generator: Adobe Illustrator 26.0.1, SVG Export Plug-In . SVG Version: 6.00 Build 0)  -->
<svg version="1.1" id="Ebene_1" xmlns="http://www.w3.org/2000/svg" xmlns:xlink="http://www.w3.org/1999/xlink" x="0px" y="0px"
	 viewBox="0 0 960 600" style="enable-background:new 0 0 960 600;" xml:space="preserve">
<style type="text/css">
	.st0{fill:#073F46;}
	.st1{fill:#FFFFFF;}
	.st2{fill:#141412;}
	.st3{fill:#E0FF00;}
</style>
<rect id="Rechteck_624" y="0" class="st0" width="960" height="600"/>
<rect x="770.7" y="0" class="st1" width="145.2" height="261.7"/>
<g>
	<g>
		<path class="st2" d="M812.3,149H810v-2.3h5.2v6.6c-1.6,0.8-3.4,1.2-5.8,1.2c-2.1,0-4.1-0.7-4.1-3.7v-5c0-3,1.2-4.4,4.5-4.4
			c1.4,0,3.2,0.2,5.1,0.5l-0.5,2.2c-2-0.3-3.2-0.4-4.2-0.4c-1.7,0-1.9,0.7-1.9,2.2v4.8c0,1.2,0.5,1.5,1.8,1.5c0.6,0,1.7-0.2,2.3-0.4
			V149z"/>
		<path class="st2" d="M818,154.3v-12.8h8.8l-0.4,2.4h-5.5v2.6h5.5l-0.4,2.4h-5.1v3h5.8v2.4H818z"/>
		<path class="st2" d="M836.4,154.3l-2.4-5.1h-1.7v5.1h-2.9v-12.8h4.9c2.6,0,4.6,0.4,4.6,3.7v0.5c0,1.6-0.7,2.6-2.1,3.1l2.8,5.4
			H836.4z M836.1,145c0-0.8-0.4-1.1-1.6-1.1h-2.2v3.1h2.5c0.9,0,1.3-0.4,1.3-1.2V145z"/>
		<path class="st2" d="M852.6,154.3v-8.4l-3.1,6.5h-1.9l-3.1-6.5v8.4h-2.8v-12.8h3.5l3.3,7.1l3.3-7.1h3.5v12.8H852.6z"/>
		<path class="st2" d="M866.3,154.3l-0.7-2.3h-4.3l-0.7,2.3h-3.2l4.5-12.8h3.3l4.5,12.8H866.3z M863.4,144.4l-1.6,5.3h3.2
			L863.4,144.4z"/>
		<path class="st2" d="M878.9,154.3l-4.7-8v8h-2.8v-12.8h2.8l4.8,7.9v-7.9h2.8v12.8H878.9z"/>
	</g>
	<g>
		<path class="st2" d="M805.6,172.6v-15.2h5.7c4.1,0,6.1,1.1,6.1,5.2v4.8c0,3.4-1.1,5.2-5.7,5.2H805.6z M813.9,162.8
			c0-1.7-0.1-2.6-2.3-2.6H809v9.7h2.4c2,0,2.4-0.6,2.4-2V162.8z"/>
		<path class="st2" d="M820.3,172.6v-15.2h10.5l-0.4,2.8h-6.6v3h6.5l-0.4,2.8h-6.1v3.6h7v2.9H820.3z"/>
		<path class="st2" d="M845,168.3c0,2.7-1.9,4.5-5.9,4.5c-2.3,0-4.5-0.4-5.8-0.8l0.9-2.8c1,0.3,2.9,0.7,4.8,0.7
			c1.7,0,2.4-0.7,2.4-1.8v-0.4c0-1.2-0.6-1.6-2-1.6h-1.9c-2.8,0-4.2-1.6-4.2-4.2v-0.4c0.1-2.9,1.8-4.4,4.8-4.4h0.5
			c1.9,0,5,0.3,6.3,0.6l-1,2.7c-1.6-0.2-3.8-0.4-5-0.4h-0.6c-1.1,0-1.5,0.6-1.5,1.5v0.4c0,0.8,0.3,1.3,1.4,1.3h2.2
			c2.8,0,4.6,1.1,4.6,4.3V168.3z"/>
		<path class="st2" d="M847.9,172.6v-15.2h3.5v15.2H847.9z"/>
		<path class="st2" d="M862.9,166.3h-2.8v-2.8h6.2v7.9c-1.9,0.9-4.1,1.4-7,1.4c-2.5,0-4.9-0.8-4.9-4.4v-5.9c0-3.6,1.4-5.2,5.4-5.2
			c1.7,0,3.8,0.2,6,0.6l-0.6,2.7c-2.4-0.4-3.8-0.5-5-0.5c-2.1,0-2.3,0.8-2.3,2.6v5.7c0,1.5,0.6,1.7,2.1,1.7c0.7,0,2-0.2,2.8-0.4
			V166.3z"/>
		<path class="st2" d="M878.4,172.6l-5.6-9.6v9.6h-3.4v-15.2h3.3l5.7,9.4v-9.4h3.4v15.2H878.4z"/>
	</g>
	<g>
		<path class="st2" d="M814.7,190.8l-0.9-2.7h-5.1l-0.9,2.7h-3.8l5.3-15h3.8l5.3,15H814.7z M811.3,179.1l-1.9,6.2h3.8L811.3,179.1z"
			/>
		<path class="st2" d="M831.7,190.8l-2.7-10.4l-2.7,10.4h-4.5l-3.3-15h3.7l2,11.4l2.9-10.9h3.9l2.9,10.9l2-11.4h3.7l-3.3,15H831.7z"
			/>
		<path class="st2" d="M850.1,190.8l-0.9-2.7h-5.1l-0.9,2.7h-3.8l5.3-15h3.8l5.3,15H850.1z M846.7,179.1l-1.9,6.2h3.8L846.7,179.1z"
			/>
		<path class="st2" d="M864.2,190.8l-2.8-6h-2v6H856v-15h5.8c3.1,0,5.4,0.5,5.4,4.4v0.6c0,1.9-0.8,3.1-2.5,3.7l3.3,6.3H864.2z
			 M863.8,179.9c0-0.9-0.4-1.3-1.8-1.3h-2.6v3.7h2.9c1.1,0,1.5-0.4,1.5-1.4V179.9z"/>
		<path class="st2" d="M870.6,190.8v-15h5.6c4.1,0,6,1.1,6,5.1v4.7c0,3.4-1,5.1-5.6,5.1H870.6z M878.8,181.1c0-1.7-0.1-2.6-2.2-2.6
			H874v9.5h2.4c2,0,2.4-0.6,2.4-2V181.1z"/>
	</g>
	<g>
		<path class="st2" d="M815.4,203.8c0,2.4-1.7,3.9-5.2,3.9c-2,0-3.9-0.4-5.1-0.7l0.8-2.4c0.8,0.2,2.5,0.6,4.2,0.6
			c1.5,0,2.1-0.6,2.1-1.6v-0.3c0-1.1-0.5-1.4-1.8-1.4h-1.6c-2.5,0-3.7-1.4-3.7-3.7v-0.4c0.1-2.6,1.6-3.9,4.2-3.9h0.4
			c1.7,0,4.3,0.3,5.6,0.5l-0.9,2.4c-1.4-0.2-3.4-0.3-4.4-0.4h-0.5c-1,0-1.3,0.5-1.3,1.3v0.4c0,0.7,0.3,1.1,1.2,1.1h1.9
			c2.5,0,4,1,4,3.8V203.8z"/>
		<path class="st2" d="M818,207.5v-13.3h5.1c3.5,0,4.6,0.9,4.6,3.8v0.9c0,2.5-1.3,3.5-4.4,3.5H821v5.1H818z M824.7,197.9
			c0-1-0.2-1.3-1.7-1.3h-2v3.4h2c1.4,0,1.7-0.3,1.7-1.2V197.9z"/>
		<path class="st2" d="M830,207.5v-13.3h9.2l-0.4,2.5H833v2.7h5.7l-0.4,2.5H833v3.2h6.1v2.5H830z"/>
		<path class="st2" d="M851,206.9c-0.8,0.3-3,0.8-5,0.8c-3.3,0-4.6-1-4.6-4.2v-4.9c0-3.2,1.1-4.5,4.6-4.5c1.5,0,3.2,0.2,4.9,0.5
			l-0.5,2.4c-2-0.3-2.9-0.4-3.9-0.4c-1.8,0-2,0.7-2,2.3v4.7c0,1.4,0.3,1.8,1.9,1.8c1.2,0,2.5-0.2,3.9-0.6L851,206.9z"/>
		<path class="st2" d="M853.3,207.5v-13.3h3v13.3H853.3z"/>
		<path class="st2" d="M867.8,207.5l-0.8-2.4h-4.5l-0.8,2.4h-3.4l4.7-13.3h3.4l4.7,13.3H867.8z M864.8,197.1l-1.7,5.6h3.4
			L864.8,197.1z"/>
		<path class="st2" d="M873.1,207.5v-13.3h3V205h6.1v2.5H873.1z"/>
	</g>
	<path class="st2" d="M849.3,56.8v-9.2c7.5-2.5,12.4-8.5,12.5-15.8h-11.1c-0.2,3.7-3.2,6.6-7,6.6c-3.7,0-6.8-2.9-7-6.6h-11.1
		c0.2,7.3,5,13.3,12.5,15.8v9.2c-19,2.7-33.3,18.9-33.3,38.5c0,21.5,17.4,38.9,38.9,38.9c21.5,0,38.9-17.4,38.9-38.9
		C882.6,75.7,868.4,59.5,849.3,56.8z M843.7,123.9c-13.9,0-25.4-9.9-28-23.1h11.5c2.5,7.5,9,12.4,16.4,12.5v-11.1
		c-3.8-0.1-6.9-3.1-6.9-6.9c0-3.8,3.1-6.8,6.9-6.9V77.2c-7.4,0.1-13.9,5-16.4,12.5h-11.5c2.6-13.1,14.2-22.9,28-22.9
		c15.8,0,28.6,12.8,28.6,28.6S859.5,123.9,843.7,123.9z"/>
	<g>
		<path class="st2" d="M805,234v-4.6c0-4.6,0.8-5.9,4.7-8c1-0.6,3.6-1.9,4.5-2.4c0.6-0.4,1.3-0.8,1.3-1.8v-0.7c0-1.3-1-1.7-2.5-1.7
			c-1.9,0-5,0.5-6.8,0.9l-1.4-4.1c2.7-0.6,5.9-1.1,8.8-1.1c4.6,0,7.3,1.5,7.3,5.7v1.1c0,2.7-1.5,4.1-3.7,5.3
			c-1.1,0.6-4.1,2.1-5.2,2.8c-1.3,0.8-1.7,1.9-1.7,3.3v1h10.7v4.3H805z"/>
		<path class="st2" d="M833.2,234.3c-6.4,0-8.6-2.6-8.6-8v-7.8c0-5.4,2.2-8,8.6-8h0.5c6.4,0,8.6,2.6,8.6,8v7.8c0,5.4-2.2,8-8.6,8
			H833.2z M837.1,218.6c0-2.9-0.5-3.8-3.2-3.8h-0.8c-2.7,0-3.2,0.9-3.2,3.8v7.7c0,2.9,0.5,3.8,3.2,3.8h0.8c2.7,0,3.2-0.9,3.2-3.8
			V218.6z"/>
		<path class="st2" d="M846.2,234v-4.6c0-4.6,0.8-5.9,4.7-8c1-0.6,3.6-1.9,4.5-2.4c0.6-0.4,1.3-0.8,1.3-1.8v-0.7
			c0-1.3-1-1.7-2.5-1.7c-1.9,0-5,0.5-6.8,0.9l-1.4-4.1c2.7-0.6,5.9-1.1,8.8-1.1c4.6,0,7.3,1.5,7.3,5.7v1.1c0,2.7-1.5,4.1-3.7,5.3
			c-1.1,0.6-4.1,2.1-5.2,2.8c-1.3,0.8-1.7,1.9-1.7,3.3v1h10.7v4.3H846.2z"/>
		<path class="st2" d="M865.7,234v-4.6c0-4.6,0.8-5.9,4.7-8c1-0.6,3.6-1.9,4.5-2.4c0.6-0.4,1.3-0.8,1.3-1.8v-0.7
			c0-1.3-1-1.7-2.5-1.7c-1.9,0-5,0.5-6.8,0.9l-1.4-4.1c2.7-0.6,5.9-1.1,8.8-1.1c4.6,0,7.3,1.5,7.3,5.7v1.1c0,2.7-1.5,4.1-3.7,5.3
			c-1.1,0.6-4.1,2.1-5.2,2.8c-1.3,0.8-1.7,1.9-1.7,3.3v1h10.7v4.3H865.7z"/>
	</g>
</g>
<g id="Gruppe_1675" transform="translate(0 -134.578)">
	<g id="Gruppe_1667" transform="translate(189.495 34.463)">
		<path id="Pfad_2514" class="st3" d="M271.2,370.6v69.5h-16.5v-69.5c2.7,0.8,5.4,1.2,8.2,1.2C265.7,371.8,268.5,371.4,271.2,370.6"
			/>
	</g>
	<g id="Gruppe_1668" transform="translate(0 33.333)">
		<path id="Pfad_2515" class="st3" d="M309.8,417c-4.1,6.3-11.1,10.1-18.6,10.2l0,0c-11.5,0-19.8-8.7-19.8-20.6
			c0-11.9,8.3-20.6,19.8-20.6c7.5,0,14.5,3.9,18.6,10.2c1.4-5.4,4.1-10.4,7.8-14.6c-6.9-7.1-16.5-11.1-26.4-11
			c-20.8,0-36.6,15.5-36.6,36c0,20.5,15.7,36,36.6,36c9.9,0.1,19.5-3.9,26.4-11C314,427.4,311.3,422.4,309.8,417"/>
	</g>
	<g id="Gruppe_1669" transform="translate(186.921 0)">
		<path id="Pfad_2516" class="st3" d="M265.5,370.6c-5.9,0-10.7,4.8-10.8,10.7c0,6,4.8,10.8,10.8,10.8c5.9,0,10.7-4.7,10.7-10.6
			c0-0.1,0-0.2,0-0.2C276.2,375.4,271.4,370.6,265.5,370.6"/>
	</g>
	<g id="Gruppe_1670" transform="translate(222.528 33.333)">
		<path id="Pfad_2517" class="st3" d="M291,370.6c-8.2,0-15.4,3.3-19.8,8.8v-7.5h-16.5v69.3h16.5v-34.1c0-13,6.6-21.4,16.7-21.4
			c8.3,0,13.3,6.1,13.3,16.4v39.1h16.5v-41.6C317.7,382,307.2,370.6,291,370.6"/>
	</g>
	<g id="Gruppe_1671" transform="translate(377.991 33.333)">
		<path id="Pfad_2518" class="st3" d="M291,370.6c-20.3,0-36.3,15.8-36.3,36c0,20.2,15.9,36,36.3,36c20.3,0,36.3-15.8,36.3-36
			C327.3,386.4,311.4,370.6,291,370.6 M291,427.2c-11.4,0-19.7-8.7-19.7-20.6c0-11.9,8.3-20.6,19.7-20.6c11.3,0,19.5,8.7,19.5,20.6
			C310.5,418.5,302.3,427.2,291,427.2"/>
	</g>
	<g id="Gruppe_1672" transform="translate(296.222 33.333)">
		<path id="Pfad_2519" class="st3" d="M308.9,371.9v7.6c-4.8-5.5-12.7-8.9-20.9-8.9c-18.7,0-33.3,15.4-33.3,35.1
			c0,19.7,14.6,35.2,33.3,35.2c8.2,0,16.1-3.5,20.9-9v3.9c0,14.1-9.9,20.4-19.7,20.4c-4.5,0-8.9-1-13-2.9c-1.3,5-3.6,9.7-6.8,13.8
			c6.3,2.7,13.1,4.1,19.9,4c22.6,0,36-13.1,36-35.1v-63.9H308.9z M290.7,425.6c-11.2,0-19.4-8.4-19.4-19.9s8.2-19.9,19.4-19.9
			s19.4,8.4,19.4,19.9C310.1,417.2,302,425.6,290.7,425.6"/>
	</g>
	<g id="Gruppe_1674" transform="translate(296.223 33.333)">
		<path id="Pfad_2521" class="st3" d="M289.4,470.9c22.6,0,36-13.1,36-35.1v-63.9h-16.5v7.6c-4.8-5.5-12.7-8.9-20.9-8.9
			c-18.7,0-33.3,15.4-33.3,35.1c0,19.7,14.6,35.2,33.3,35.2c8.2,0,16.1-3.5,20.9-9v3.9c0,14.1-9.9,20.4-19.7,20.4 M290.7,425.6
			c-11.2,0-19.4-8.4-19.4-19.9s8.2-19.9,19.4-19.9s19.4,8.4,19.4,19.9C310.1,417.2,302,425.6,290.7,425.6"/>
	</g>
</g>
<path id="Pfad_2523" class="st3" d="M411.2,340h16.5V236.8h-16.5V340z"/>
<g id="Gruppe_1677_00000061439362643738503730000000295953614553117583_" transform="translate(0 -134.578)">
	<g id="Gruppe_1676_00000116229618867696793700000007048810066518698166_" transform="translate(69.007 33.333)">
		<path id="Pfad_2524_00000034773848222410529690000012027285526967145138_" class="st3" d="M309.1,371.9v7.6c-5.4-5.7-13-9-20.9-9
			c-18.8,0-33.4,15.8-33.4,36c0,20.2,14.7,36,33.4,36c7.9,0,15.5-3.2,20.9-9v7.6h16.5v-69.3H309.1z M290.9,427.5
			c-11.2,0-19.4-8.8-19.4-20.9s8.2-20.9,19.4-20.9s19.4,8.8,19.4,20.9C310.3,418.7,302.1,427.5,290.9,427.5"/>
	</g>
</g>
</svg>
