<?xml version="1.0" encoding="utf-8"?>
<!-- Generator: Adobe Illustrator 26.0.1, SVG Export Plug-In . SVG Version: 6.00 Build 0)  -->
<svg version="1.1" xmlns="http://www.w3.org/2000/svg" xmlns:xlink="http://www.w3.org/1999/xlink" x="0px" y="0px"
	 viewBox="0 0 960 600" style="enable-background:new 0 0 960 600;" xml:space="preserve">
<style type="text/css">
	.st0{fill:#121A1E;}
	.st1{fill:none;stroke:#EDF406;stroke-width:0.4518;stroke-miterlimit:10;}
	.st2{fill:none;stroke:#EDF406;stroke-width:0.4379;stroke-miterlimit:10;}
	.st3{fill:url(#Pfad_2448_00000013153980013426876300000015570391501346240664_);}
	.st4{fill:url(#Pfad_2448_00000003082769214508115080000009224471267839137673_);}
	.st5{fill:url(#Pfad_2448_00000067921066123878396740000000668546020197806243_);}
	.st6{fill:url(#Pfad_2448_00000102504519293466512380000003186330566003818672_);}
	.st7{fill:url(#Pfad_2448_00000132782750044749503920000008238453746156508589_);}
	.st8{fill:url(#Pfad_2448_00000163051989584878266890000009534088560763135151_);}
	.st9{fill:url(#Pfad_2448_00000147941559860279880950000002964926425931755904_);}
	.st10{fill:url(#Pfad_2448_00000124153369937958970560000015756798693146508463_);}
	.st11{fill:url(#Pfad_2448_00000085928718082685088090000016112034264532874686_);}
	.st12{fill:url(#Pfad_2448_00000123433387430796436250000000564637497572383648_);}
	.st13{fill:url(#Pfad_2448_00000048476968057390945230000017690202856888469127_);}
	.st14{fill:url(#Pfad_2448_00000138569982824698037250000006100111294954285449_);}
	.st15{fill:url(#Pfad_2448_00000010303573757681026220000014251876044753181328_);}
	.st16{fill:url(#Pfad_2448_00000039820853013700525010000003745576908629160078_);}
	.st17{fill:url(#Pfad_2448_00000085223400580079684580000013091519466579628166_);}
	.st18{fill:url(#Pfad_2448_00000141439075126943901960000006292738287778240673_);}
	.st19{fill:url(#Pfad_2448_00000010307310964955169520000004124613267868148383_);}
	.st20{fill:url(#Pfad_2448_00000132804761741505432420000012931013563851181490_);}
	.st21{fill:url(#Pfad_2448_00000044166982296053836670000015045819461892025791_);}
	.st22{fill:url(#Pfad_2448_00000120532546460719532300000015505407600233438636_);}
	.st23{fill:url(#Pfad_2448_00000041275902739619723200000011494677422084324029_);}
	.st24{fill:url(#Pfad_2448_00000111913368283345339890000004119119851550162063_);}
	.st25{fill:url(#Pfad_2448_00000066510712662417758010000015566958841999372441_);}
	.st26{fill:url(#Pfad_2448_00000044900234456095138740000012954735268516110261_);}
</style>
<g id="Ebene_2">
	
		<rect id="_2media_bildwelt_H6A21251_web_00000105400418268184139530000007150800078024703912_" y="0" class="st0" width="960" height="600"/>
	<g>
		<line class="st1" x1="48" y1="100.1" x2="912.8" y2="100.1"/>
		<line class="st1" x1="48" y1="150.9" x2="912.8" y2="150.9"/>
		<line class="st1" x1="48" y1="201.7" x2="912.8" y2="201.7"/>
		<line class="st1" x1="48" y1="252.5" x2="912.8" y2="252.5"/>
		<line class="st1" x1="48" y1="303.3" x2="912.8" y2="303.3"/>
		<line class="st1" x1="48" y1="354.1" x2="912.8" y2="354.1"/>
		<line class="st1" x1="48" y1="404.9" x2="912.8" y2="404.9"/>
		<line class="st1" x1="48" y1="455.7" x2="912.8" y2="455.7"/>
		<line class="st1" x1="48" y1="506.5" x2="912.8" y2="506.5"/>
	</g>
	<g>
		<line class="st2" x1="95.5" y1="48.9" x2="95.5" y2="553"/>
		<line class="st2" x1="146.7" y1="48.9" x2="146.7" y2="553"/>
		<line class="st2" x1="197.9" y1="48.9" x2="197.9" y2="553"/>
		<line class="st2" x1="249.1" y1="48.9" x2="249.1" y2="553"/>
		<line class="st2" x1="300.3" y1="48.9" x2="300.3" y2="553"/>
		<line class="st2" x1="351.5" y1="48.9" x2="351.5" y2="553"/>
		<line class="st2" x1="402.7" y1="48.9" x2="402.7" y2="553"/>
		<line class="st2" x1="453.9" y1="48.9" x2="453.9" y2="553"/>
		<line class="st2" x1="505.1" y1="48.9" x2="505.1" y2="553"/>
		<line class="st2" x1="556.3" y1="48.9" x2="556.3" y2="553"/>
		<line class="st2" x1="607.5" y1="48.9" x2="607.5" y2="553"/>
		<line class="st2" x1="658.7" y1="48.9" x2="658.7" y2="553"/>
		<line class="st2" x1="709.9" y1="48.9" x2="709.9" y2="553"/>
		<line class="st2" x1="761.2" y1="48.9" x2="761.2" y2="553"/>
		<line class="st2" x1="812.4" y1="48.9" x2="812.4" y2="553"/>
		<line class="st2" x1="863.6" y1="48.9" x2="863.6" y2="553"/>
	</g>
</g>
<g id="Ebene_1">
	<g>
		
			<linearGradient id="Pfad_2448_00000091722728286442214820000009619981573588571782_" gradientUnits="userSpaceOnUse" x1="204.2099" y1="150.978" x2="319.276" y2="150.978">
			<stop  offset="8.165925e-02" style="stop-color:#EFEC1C"/>
			<stop  offset="0.7256" style="stop-color:#EEF10E;stop-opacity:0.2988"/>
			<stop  offset="1" style="stop-color:#EDF406;stop-opacity:0"/>
		</linearGradient>
		
			<path id="Pfad_2448_00000156548507467882011140000003646601713090812327_" style="fill:url(#Pfad_2448_00000091722728286442214820000009619981573588571782_);" d="
			M319.3,150.5V202h-22.9v-31.5h-47.4L230.6,202h-26.4l22.1-35.4c-7.6-3.4-13.5-9.9-16.4-18c-1.5-4.3-2.3-8.8-2.3-13.3
			c-0.1-6.4,1.5-12.6,4.5-18.1c3-5.3,7.4-9.7,12.6-12.6c5.6-3.1,11.9-4.6,18.2-4.5h76.1v19.9h-22.9H244c-2.4,0-4.7,0.7-6.7,2.1
			c-2.1,1.4-3.8,3.4-4.9,5.7c-2.4,4.8-2.4,10.6,0,15.4c1.1,2.2,2.8,4.1,4.9,5.5c2,1.4,4.4,2.1,6.7,2h52.2L319.3,150.5z"/>
		
			<linearGradient id="Pfad_2448_00000114054283677815121120000017389528238821403546_" gradientUnits="userSpaceOnUse" x1="326.9294" y1="150.978" x2="447.6647" y2="150.978">
			<stop  offset="8.165925e-02" style="stop-color:#EFEC1C"/>
			<stop  offset="0.7256" style="stop-color:#EEF10E;stop-opacity:0.2988"/>
			<stop  offset="1" style="stop-color:#EDF406;stop-opacity:0"/>
		</linearGradient>
		
			<path id="Pfad_2448_00000076580474202883739460000005501994137844594823_" style="fill:url(#Pfad_2448_00000114054283677815121120000017389528238821403546_);" d="
			M447.7,150.5V202h-22.9v-31.5h-53.1L353.3,202h-26.4l22.1-35.4c-7.6-3.4-13.5-9.9-16.4-18c-1.5-4.3-2.3-8.8-2.3-13.3
			c-0.1-6.4,1.5-12.6,4.5-18.1c3-5.3,7.4-9.7,12.6-12.6c5.6-3.1,11.9-4.6,18.2-4.5h81.8v19.9h-22.9h-57.9c-2.4,0-4.7,0.7-6.7,2.1
			c-2.1,1.4-3.8,3.4-4.9,5.7c-2.4,4.8-2.4,10.6,0,15.4c1.1,2.2,2.8,4.1,4.9,5.5c2,1.4,4.4,2.1,6.7,2h57.9L447.7,150.5z"/>
		
			<linearGradient id="Pfad_2448_00000120528061083899143440000007523358911778716065_" gradientUnits="userSpaceOnUse" x1="454.9804" y1="150.978" x2="581.385" y2="150.978">
			<stop  offset="8.165925e-02" style="stop-color:#EFEC1C"/>
			<stop  offset="0.7256" style="stop-color:#EEF10E;stop-opacity:0.2988"/>
			<stop  offset="1" style="stop-color:#EDF406;stop-opacity:0"/>
		</linearGradient>
		
			<path id="Pfad_2448_00000039094996707336640310000011593739290293545118_" style="fill:url(#Pfad_2448_00000120528061083899143440000007523358911778716065_);" d="
			M581.4,150.5V202h-22.9v-31.5h-58.8L481.3,202H455l22.1-35.4c-7.6-3.4-13.5-9.9-16.4-18c-1.5-4.3-2.3-8.8-2.3-13.3
			c-0.1-6.4,1.5-12.6,4.5-18.1c3-5.3,7.4-9.7,12.6-12.6c5.6-3.1,11.9-4.6,18.2-4.5h87.5v19.9h-22.9h-63.6c-2.4,0-4.7,0.7-6.7,2.1
			c-2.1,1.4-3.8,3.4-4.9,5.7c-2.4,4.8-2.4,10.6,0,15.4c1.1,2.2,2.8,4.1,4.9,5.5c2,1.4,4.4,2.1,6.7,2h63.6L581.4,150.5z"/>
		
			<linearGradient id="Pfad_2448_00000015337942126209438320000011241249532973883835_" gradientUnits="userSpaceOnUse" x1="587.6489" y1="150.978" x2="719.7228" y2="150.978">
			<stop  offset="8.165925e-02" style="stop-color:#EFEC1C"/>
			<stop  offset="0.7256" style="stop-color:#EEF10E;stop-opacity:0.2988"/>
			<stop  offset="1" style="stop-color:#EDF406;stop-opacity:0"/>
		</linearGradient>
		
			<path id="Pfad_2448_00000141416513750546044200000003665034148207720078_" style="fill:url(#Pfad_2448_00000015337942126209438320000011241249532973883835_);" d="
			M719.7,150.5V202h-22.9v-31.5h-64.4L614,202h-26.4l22.1-35.4c-7.6-3.4-13.5-9.9-16.4-18c-1.5-4.3-2.3-8.8-2.3-13.3
			c-0.1-6.4,1.5-12.6,4.5-18.1c3-5.3,7.4-9.7,12.6-12.6c5.6-3.1,11.9-4.6,18.2-4.5h93.2v19.9h-22.9h-69.3c-2.4,0-4.7,0.7-6.7,2.1
			c-2.1,1.4-3.8,3.4-4.9,5.7c-2.4,4.8-2.4,10.6,0,15.4c1.1,2.2,2.8,4.1,4.9,5.5c2,1.4,4.4,2.1,6.7,2h69.3L719.7,150.5z"/>
		
			<linearGradient id="Pfad_2448_00000176031501096384382760000007380933099020501428_" gradientUnits="userSpaceOnUse" x1="726.1907" y1="150.978" x2="863.9338" y2="150.978">
			<stop  offset="8.165925e-02" style="stop-color:#EFEC1C"/>
			<stop  offset="0.7256" style="stop-color:#EEF10E;stop-opacity:0.2988"/>
			<stop  offset="1" style="stop-color:#EDF406;stop-opacity:0"/>
		</linearGradient>
		
			<path id="Pfad_2448_00000041990146833704119610000007979649412854699140_" style="fill:url(#Pfad_2448_00000176031501096384382760000007380933099020501428_);" d="
			M863.9,150.5V202H841v-31.5h-70.1L752.5,202h-26.4l22.1-35.4c-7.6-3.4-13.5-9.9-16.4-18c-1.5-4.3-2.3-8.8-2.3-13.3
			c-0.1-6.4,1.5-12.6,4.5-18.1c3-5.3,7.4-9.7,12.6-12.6c5.6-3.1,11.9-4.6,18.2-4.5h98.8v19.9H841H766c-2.4,0-4.7,0.7-6.7,2.1
			c-2.1,1.4-3.8,3.4-4.9,5.7c-2.4,4.8-2.4,10.6,0,15.4c1.1,2.2,2.8,4.1,4.9,5.5c2,1.4,4.4,2.1,6.7,2H841L863.9,150.5z"/>
		
			<linearGradient id="Pfad_2448_00000128470973028432237510000004334679029696311228_" gradientUnits="userSpaceOnUse" x1="95.343" y1="150.978" x2="197.9756" y2="150.978">
			<stop  offset="8.165925e-02" style="stop-color:#EFEC1C"/>
			<stop  offset="0.7256" style="stop-color:#EEF10E;stop-opacity:0.2988"/>
			<stop  offset="1" style="stop-color:#EDF406;stop-opacity:0"/>
		</linearGradient>
		
			<path id="Pfad_2448_00000155133020119844589790000006512046496059408540_" style="fill:url(#Pfad_2448_00000128470973028432237510000004334679029696311228_);" d="
			M198,150.5V202h-22.9v-31.5h-35L121.7,202H95.3l22.1-35.4c-7.6-3.4-13.5-9.9-16.4-18c-1.5-4.3-2.3-8.8-2.3-13.3
			c-0.1-6.4,1.5-12.6,4.5-18.1c3-5.3,7.4-9.7,12.6-12.6c5.6-3.1,11.9-4.6,18.2-4.5h63.7v19.9H175h-39.8c-2.4,0-4.7,0.7-6.7,2.1
			c-2.1,1.4-3.8,3.4-4.9,5.7c-2.4,4.8-2.4,10.6,0,15.4c1.1,2.2,2.8,4.1,4.9,5.5c2,1.4,4.4,2.1,6.7,2H175L198,150.5z"/>
	</g>
	<g>
		
			<linearGradient id="Pfad_2448_00000088127629142858529230000017300283373198128792_" gradientUnits="userSpaceOnUse" x1="640.0009" y1="252.7359" x2="755.067" y2="252.7359">
			<stop  offset="0" style="stop-color:#EDF406;stop-opacity:0"/>
			<stop  offset="0.2693" style="stop-color:#EEF10E;stop-opacity:0.2933"/>
			<stop  offset="0.9183" style="stop-color:#EFEC1C"/>
		</linearGradient>
		
			<path id="Pfad_2448_00000032643775541652092530000016809508515474254247_" style="fill:url(#Pfad_2448_00000088127629142858529230000017300283373198128792_);" d="
			M640,252.3v51.4h22.9v-31.5h47.4l18.4,31.5h26.4l-22.1-35.4c7.6-3.4,13.5-9.9,16.4-18c1.5-4.3,2.3-8.8,2.3-13.3
			c0.1-6.4-1.5-12.6-4.5-18.1c-3-5.3-7.4-9.7-12.6-12.6c-5.6-3.1-11.9-4.6-18.2-4.5h-76.1v19.9H663h52.2c2.4,0,4.7,0.7,6.7,2.1
			c2.1,1.4,3.8,3.4,4.9,5.7c2.4,4.8,2.4,10.6,0,15.4c-1.1,2.2-2.8,4.1-4.9,5.5c-2,1.4-4.4,2.1-6.7,2H663L640,252.3z"/>
		
			<linearGradient id="Pfad_2448_00000050621341144883872610000013250793675982357689_" gradientUnits="userSpaceOnUse" x1="511.6122" y1="252.7359" x2="632.3475" y2="252.7359">
			<stop  offset="0" style="stop-color:#EDF406;stop-opacity:0"/>
			<stop  offset="0.2693" style="stop-color:#EEF10E;stop-opacity:0.2933"/>
			<stop  offset="0.9183" style="stop-color:#EFEC1C"/>
		</linearGradient>
		
			<path id="Pfad_2448_00000149363651105458015200000015270626809229996417_" style="fill:url(#Pfad_2448_00000050621341144883872610000013250793675982357689_);" d="
			M511.6,252.3v51.4h22.9v-31.5h53.1l18.4,31.5h26.4l-22.1-35.4c7.6-3.4,13.5-9.9,16.4-18c1.5-4.3,2.3-8.8,2.3-13.3
			c0.1-6.4-1.5-12.6-4.5-18.1c-3-5.3-7.4-9.7-12.6-12.6c-5.6-3.1-11.9-4.6-18.2-4.5h-81.8v19.9h22.9h57.9c2.4,0,4.7,0.7,6.7,2.1
			c2.1,1.4,3.8,3.4,4.9,5.7c2.4,4.8,2.4,10.6,0,15.4c-1.1,2.2-2.8,4.1-4.9,5.5c-2,1.4-4.4,2.1-6.7,2h-57.9L511.6,252.3z"/>
		
			<linearGradient id="Pfad_2448_00000107559306296233893290000017148354272815420076_" gradientUnits="userSpaceOnUse" x1="377.8919" y1="252.7359" x2="504.2965" y2="252.7359">
			<stop  offset="0" style="stop-color:#EDF406;stop-opacity:0"/>
			<stop  offset="0.2693" style="stop-color:#EEF10E;stop-opacity:0.2933"/>
			<stop  offset="0.9183" style="stop-color:#EFEC1C"/>
		</linearGradient>
		
			<path id="Pfad_2448_00000096056042972388464890000012639316806860281010_" style="fill:url(#Pfad_2448_00000107559306296233893290000017148354272815420076_);" d="
			M377.9,252.3v51.4h22.9v-31.5h58.8l18.4,31.5h26.4l-22.1-35.4c7.6-3.4,13.5-9.9,16.4-18c1.5-4.3,2.3-8.8,2.3-13.3
			c0.1-6.4-1.5-12.6-4.5-18.1c-3-5.3-7.4-9.7-12.6-12.6c-5.6-3.1-11.9-4.6-18.2-4.5H378v19.9h22.9h63.6c2.4,0,4.7,0.7,6.7,2.1
			c2.1,1.4,3.8,3.4,4.9,5.7c2.4,4.8,2.4,10.6,0,15.4c-1.1,2.2-2.8,4.1-4.9,5.5c-2,1.4-4.4,2.1-6.7,2h-63.6L377.9,252.3z"/>
		
			<linearGradient id="Pfad_2448_00000120555636932673272470000002363018215835859110_" gradientUnits="userSpaceOnUse" x1="239.554" y1="252.7359" x2="371.6279" y2="252.7359">
			<stop  offset="0" style="stop-color:#EDF406;stop-opacity:0"/>
			<stop  offset="0.2693" style="stop-color:#EEF10E;stop-opacity:0.2933"/>
			<stop  offset="0.9183" style="stop-color:#EFEC1C"/>
		</linearGradient>
		
			<path id="Pfad_2448_00000073688143171579235100000010490086709660103566_" style="fill:url(#Pfad_2448_00000120555636932673272470000002363018215835859110_);" d="
			M239.6,252.3v51.4h22.9v-31.5h64.4l18.4,31.5h26.4l-22.1-35.4c7.6-3.4,13.5-9.9,16.4-18c1.5-4.3,2.3-8.8,2.3-13.3
			c0.1-6.4-1.5-12.6-4.5-18.1c-3-5.3-7.4-9.7-12.6-12.6c-5.6-3.1-11.9-4.6-18.2-4.5h-93.2v19.9h22.9h69.3c2.4,0,4.7,0.7,6.7,2.1
			c2.1,1.4,3.8,3.4,4.9,5.7c2.4,4.8,2.4,10.6,0,15.4c-1.1,2.2-2.8,4.1-4.9,5.5c-2,1.4-4.4,2.1-6.7,2h-69.3L239.6,252.3z"/>
		
			<linearGradient id="Pfad_2448_00000040553570101906228640000006297108382219341992_" gradientUnits="userSpaceOnUse" x1="95.343" y1="252.7359" x2="233.0862" y2="252.7359">
			<stop  offset="0" style="stop-color:#EDF406;stop-opacity:0"/>
			<stop  offset="0.2693" style="stop-color:#EEF10E;stop-opacity:0.2933"/>
			<stop  offset="0.9183" style="stop-color:#EFEC1C"/>
		</linearGradient>
		
			<path id="Pfad_2448_00000134251492906758767670000005050179862412588204_" style="fill:url(#Pfad_2448_00000040553570101906228640000006297108382219341992_);" d="
			M95.3,252.3v51.4h22.9v-31.5h70.1l18.4,31.5h26.4l-22.1-35.4c7.6-3.4,13.5-9.9,16.4-18c1.5-4.3,2.3-8.8,2.3-13.3
			c0.1-6.4-1.5-12.6-4.5-18.1c-3-5.3-7.4-9.7-12.6-12.6c-5.6-3.1-11.9-4.6-18.2-4.5H95.4v19.9h22.9h74.9c2.4,0,4.7,0.7,6.7,2.1
			c2.1,1.4,3.8,3.4,4.9,5.7c2.4,4.8,2.4,10.6,0,15.4c-1.1,2.2-2.8,4.1-4.9,5.5c-2,1.4-4.4,2.1-6.7,2h-74.9L95.3,252.3z"/>
		
			<linearGradient id="Pfad_2448_00000160192665881382626510000012295267447070744981_" gradientUnits="userSpaceOnUse" x1="761.3013" y1="252.7359" x2="863.9338" y2="252.7359">
			<stop  offset="0" style="stop-color:#EDF406;stop-opacity:0"/>
			<stop  offset="0.2693" style="stop-color:#EEF10E;stop-opacity:0.2933"/>
			<stop  offset="0.9183" style="stop-color:#EFEC1C"/>
		</linearGradient>
		
			<path id="Pfad_2448_00000043431223104745336620000010102392667279533975_" style="fill:url(#Pfad_2448_00000160192665881382626510000012295267447070744981_);" d="
			M761.3,252.3v51.4h22.9v-31.5h35l18.4,31.5h26.4l-22.1-35.4c7.6-3.4,13.5-9.9,16.4-18c1.5-4.3,2.3-8.8,2.3-13.3
			c0.1-6.4-1.5-12.6-4.5-18.1c-3-5.3-7.4-9.7-12.6-12.6c-5.6-3.1-11.9-4.6-18.2-4.5h-63.7v19.9h22.9h39.8c2.4,0,4.7,0.7,6.7,2.1
			c2.1,1.4,3.8,3.4,4.9,5.7c2.4,4.8,2.4,10.6,0,15.4c-1.1,2.2-2.8,4.1-4.9,5.5c-2,1.4-4.4,2.1-6.7,2h-39.8L761.3,252.3z"/>
	</g>
	<g>
		
			<linearGradient id="Pfad_2448_00000054268078952439607850000011190757246319693959_" gradientUnits="userSpaceOnUse" x1="204.2099" y1="353.9262" x2="319.276" y2="353.9262">
			<stop  offset="8.165925e-02" style="stop-color:#EFEC1C"/>
			<stop  offset="0.7256" style="stop-color:#EEF10E;stop-opacity:0.2988"/>
			<stop  offset="1" style="stop-color:#EDF406;stop-opacity:0"/>
		</linearGradient>
		
			<path id="Pfad_2448_00000030470301320841597880000013639177022803069340_" style="fill:url(#Pfad_2448_00000054268078952439607850000011190757246319693959_);" d="
			M319.3,353.5v51.4h-22.9v-31.5h-47.4l-18.4,31.5h-26.4l22.1-35.4c-7.6-3.4-13.5-9.9-16.4-18c-1.5-4.3-2.3-8.8-2.3-13.3
			c-0.1-6.4,1.5-12.6,4.5-18.1c3-5.3,7.4-9.7,12.6-12.6c5.6-3.1,11.9-4.6,18.2-4.5h76.1v19.9h-22.9H244c-2.4,0-4.7,0.7-6.7,2.1
			c-2.1,1.4-3.8,3.4-4.9,5.7c-2.4,4.8-2.4,10.6,0,15.4c1.1,2.2,2.8,4.1,4.9,5.5c2,1.4,4.4,2.1,6.7,2h52.2L319.3,353.5z"/>
		
			<linearGradient id="Pfad_2448_00000152260449947028339880000016442488644639421340_" gradientUnits="userSpaceOnUse" x1="326.9294" y1="353.9262" x2="447.6647" y2="353.9262">
			<stop  offset="8.165925e-02" style="stop-color:#EFEC1C"/>
			<stop  offset="0.7256" style="stop-color:#EEF10E;stop-opacity:0.2988"/>
			<stop  offset="1" style="stop-color:#EDF406;stop-opacity:0"/>
		</linearGradient>
		
			<path id="Pfad_2448_00000039096084868497515790000011312730816007649439_" style="fill:url(#Pfad_2448_00000152260449947028339880000016442488644639421340_);" d="
			M447.7,353.5v51.4h-22.9v-31.5h-53.1l-18.4,31.5h-26.4l22.1-35.4c-7.6-3.4-13.5-9.9-16.4-18c-1.5-4.3-2.3-8.8-2.3-13.3
			c-0.1-6.4,1.5-12.6,4.5-18.1c3-5.3,7.4-9.7,12.6-12.6c5.6-3.1,11.9-4.6,18.2-4.5h81.8v19.9h-22.9h-57.9c-2.4,0-4.7,0.7-6.7,2.1
			c-2.1,1.4-3.8,3.4-4.9,5.7c-2.4,4.8-2.4,10.6,0,15.4c1.1,2.2,2.8,4.1,4.9,5.5c2,1.4,4.4,2.1,6.7,2h57.9L447.7,353.5z"/>
		
			<linearGradient id="Pfad_2448_00000034803042574916661960000015039204881424193962_" gradientUnits="userSpaceOnUse" x1="454.9804" y1="353.9262" x2="581.385" y2="353.9262">
			<stop  offset="8.165925e-02" style="stop-color:#EFEC1C"/>
			<stop  offset="0.7256" style="stop-color:#EEF10E;stop-opacity:0.2988"/>
			<stop  offset="1" style="stop-color:#EDF406;stop-opacity:0"/>
		</linearGradient>
		
			<path id="Pfad_2448_00000112628820346004810520000007096594903232813220_" style="fill:url(#Pfad_2448_00000034803042574916661960000015039204881424193962_);" d="
			M581.4,353.5v51.4h-22.9v-31.5h-58.8l-18.4,31.5H455l22.1-35.4c-7.6-3.4-13.5-9.9-16.4-18c-1.5-4.3-2.3-8.8-2.3-13.3
			c-0.1-6.4,1.5-12.6,4.5-18.1c3-5.3,7.4-9.7,12.6-12.6c5.6-3.1,11.9-4.6,18.2-4.5h87.5v19.9h-22.9h-63.6c-2.4,0-4.7,0.7-6.7,2.1
			c-2.1,1.4-3.8,3.4-4.9,5.7c-2.4,4.8-2.4,10.6,0,15.4c1.1,2.2,2.8,4.1,4.9,5.5c2,1.4,4.4,2.1,6.7,2h63.6L581.4,353.5z"/>
		
			<linearGradient id="Pfad_2448_00000118388181691243080070000011302141194450388096_" gradientUnits="userSpaceOnUse" x1="587.6489" y1="353.9262" x2="719.7228" y2="353.9262">
			<stop  offset="8.165925e-02" style="stop-color:#EFEC1C"/>
			<stop  offset="0.7256" style="stop-color:#EEF10E;stop-opacity:0.2988"/>
			<stop  offset="1" style="stop-color:#EDF406;stop-opacity:0"/>
		</linearGradient>
		
			<path id="Pfad_2448_00000180329101247058263340000015387953442045376678_" style="fill:url(#Pfad_2448_00000118388181691243080070000011302141194450388096_);" d="
			M719.7,353.5v51.4h-22.9v-31.5h-64.4L614,404.9h-26.4l22.1-35.4c-7.6-3.4-13.5-9.9-16.4-18c-1.5-4.3-2.3-8.8-2.3-13.3
			c-0.1-6.4,1.5-12.6,4.5-18.1c3-5.3,7.4-9.7,12.6-12.6c5.6-3.1,11.9-4.6,18.2-4.5h93.2v19.9h-22.9h-69.3c-2.4,0-4.7,0.7-6.7,2.1
			c-2.1,1.4-3.8,3.4-4.9,5.7c-2.4,4.8-2.4,10.6,0,15.4c1.1,2.2,2.8,4.1,4.9,5.5c2,1.4,4.4,2.1,6.7,2h69.3L719.7,353.5z"/>
		
			<linearGradient id="Pfad_2448_00000123429782418419492480000015738723439518697124_" gradientUnits="userSpaceOnUse" x1="726.1907" y1="353.9262" x2="863.9338" y2="353.9262">
			<stop  offset="8.165925e-02" style="stop-color:#EFEC1C"/>
			<stop  offset="0.7256" style="stop-color:#EEF10E;stop-opacity:0.2988"/>
			<stop  offset="1" style="stop-color:#EDF406;stop-opacity:0"/>
		</linearGradient>
		
			<path id="Pfad_2448_00000134932422417674664020000014089476280682504612_" style="fill:url(#Pfad_2448_00000123429782418419492480000015738723439518697124_);" d="
			M863.9,353.5v51.4H841v-31.5h-70.1l-18.4,31.5h-26.4l22.1-35.4c-7.6-3.4-13.5-9.9-16.4-18c-1.5-4.3-2.3-8.8-2.3-13.3
			c-0.1-6.4,1.5-12.6,4.5-18.1c3-5.3,7.4-9.7,12.6-12.6c5.6-3.1,11.9-4.6,18.2-4.5h98.8v19.9H841H766c-2.4,0-4.7,0.7-6.7,2.1
			c-2.1,1.4-3.8,3.4-4.9,5.7c-2.4,4.8-2.4,10.6,0,15.4c1.1,2.2,2.8,4.1,4.9,5.5c2,1.4,4.4,2.1,6.7,2H841L863.9,353.5z"/>
		
			<linearGradient id="Pfad_2448_00000016073639178524796150000010676043603701113019_" gradientUnits="userSpaceOnUse" x1="95.343" y1="353.9262" x2="197.9756" y2="353.9262">
			<stop  offset="8.165925e-02" style="stop-color:#EFEC1C"/>
			<stop  offset="0.7256" style="stop-color:#EEF10E;stop-opacity:0.2988"/>
			<stop  offset="1" style="stop-color:#EDF406;stop-opacity:0"/>
		</linearGradient>
		
			<path id="Pfad_2448_00000057847375509616613600000012554838182115422857_" style="fill:url(#Pfad_2448_00000016073639178524796150000010676043603701113019_);" d="
			M198,353.5v51.4h-22.9v-31.5h-35l-18.4,31.5H95.3l22.1-35.4c-7.6-3.4-13.5-9.9-16.4-18c-1.5-4.3-2.3-8.8-2.3-13.3
			c-0.1-6.4,1.5-12.6,4.5-18.1c3-5.3,7.4-9.7,12.6-12.6c5.6-3.1,11.9-4.6,18.2-4.5h63.7v19.9H175h-39.8c-2.4,0-4.7,0.7-6.7,2.1
			c-2.1,1.4-3.8,3.4-4.9,5.7c-2.4,4.8-2.4,10.6,0,15.4c1.1,2.2,2.8,4.1,4.9,5.5c2,1.4,4.4,2.1,6.7,2H175L198,353.5z"/>
	</g>
	<g>
		
			<linearGradient id="Pfad_2448_00000054223960854301082910000011335591980628490152_" gradientUnits="userSpaceOnUse" x1="640.0009" y1="455.9676" x2="755.067" y2="455.9676">
			<stop  offset="0" style="stop-color:#EDF406;stop-opacity:0"/>
			<stop  offset="0.2693" style="stop-color:#EEF10E;stop-opacity:0.2933"/>
			<stop  offset="0.9183" style="stop-color:#EFEC1C"/>
		</linearGradient>
		
			<path id="Pfad_2448_00000028323737128379367740000015125187092962654644_" style="fill:url(#Pfad_2448_00000054223960854301082910000011335591980628490152_);" d="
			M640,455.5v51.4h22.9v-31.5h47.4l18.4,31.5h26.4l-22.1-35.4c7.6-3.4,13.5-9.9,16.4-18c1.5-4.3,2.3-8.8,2.3-13.3
			c0.1-6.4-1.5-12.6-4.5-18.1c-3-5.3-7.4-9.7-12.6-12.6c-5.6-3.1-11.9-4.6-18.2-4.5h-76.1v19.9H663h52.2c2.4,0,4.7,0.7,6.7,2.1
			c2.1,1.4,3.8,3.4,4.9,5.7c2.4,4.8,2.4,10.6,0,15.4c-1.1,2.2-2.8,4.1-4.9,5.5c-2,1.4-4.4,2.1-6.7,2H663L640,455.5z"/>
		
			<linearGradient id="Pfad_2448_00000044154290818270405380000007803047338634018440_" gradientUnits="userSpaceOnUse" x1="511.6122" y1="455.9676" x2="632.3475" y2="455.9676">
			<stop  offset="0" style="stop-color:#EDF406;stop-opacity:0"/>
			<stop  offset="0.2693" style="stop-color:#EEF10E;stop-opacity:0.2933"/>
			<stop  offset="0.9183" style="stop-color:#EFEC1C"/>
		</linearGradient>
		
			<path id="Pfad_2448_00000011722719976086503000000003257920537155963266_" style="fill:url(#Pfad_2448_00000044154290818270405380000007803047338634018440_);" d="
			M511.6,455.5v51.4h22.9v-31.5h53.1l18.4,31.5h26.4l-22.1-35.4c7.6-3.4,13.5-9.9,16.4-18c1.5-4.3,2.3-8.8,2.3-13.3
			c0.1-6.4-1.5-12.6-4.5-18.1c-3-5.3-7.4-9.7-12.6-12.6c-5.6-3.1-11.9-4.6-18.2-4.5h-81.8v19.9h22.9h57.9c2.4,0,4.7,0.7,6.7,2.1
			c2.1,1.4,3.8,3.4,4.9,5.7c2.4,4.8,2.4,10.6,0,15.4c-1.1,2.2-2.8,4.1-4.9,5.5c-2,1.4-4.4,2.1-6.7,2h-57.9L511.6,455.5z"/>
		
			<linearGradient id="Pfad_2448_00000140694823417235884390000007626975566139854728_" gradientUnits="userSpaceOnUse" x1="377.8919" y1="455.9676" x2="504.2965" y2="455.9676">
			<stop  offset="0" style="stop-color:#EDF406;stop-opacity:0"/>
			<stop  offset="0.2693" style="stop-color:#EEF10E;stop-opacity:0.2933"/>
			<stop  offset="0.9183" style="stop-color:#EFEC1C"/>
		</linearGradient>
		
			<path id="Pfad_2448_00000159430475249369977220000003692519449852677818_" style="fill:url(#Pfad_2448_00000140694823417235884390000007626975566139854728_);" d="
			M377.9,455.5v51.4h22.9v-31.5h58.8l18.4,31.5h26.4l-22.1-35.4c7.6-3.4,13.5-9.9,16.4-18c1.5-4.3,2.3-8.8,2.3-13.3
			c0.1-6.4-1.5-12.6-4.5-18.1c-3-5.3-7.4-9.7-12.6-12.6c-5.6-3.1-11.9-4.6-18.2-4.5H378v19.9h22.9h63.6c2.4,0,4.7,0.7,6.7,2.1
			c2.1,1.4,3.8,3.4,4.9,5.7c2.4,4.8,2.4,10.6,0,15.4c-1.1,2.2-2.8,4.1-4.9,5.5c-2,1.4-4.4,2.1-6.7,2h-63.6L377.9,455.5z"/>
		
			<linearGradient id="Pfad_2448_00000146468671699831560480000003680098190271416223_" gradientUnits="userSpaceOnUse" x1="239.554" y1="455.9676" x2="371.6279" y2="455.9676">
			<stop  offset="0" style="stop-color:#EDF406;stop-opacity:0"/>
			<stop  offset="0.2693" style="stop-color:#EEF10E;stop-opacity:0.2933"/>
			<stop  offset="0.9183" style="stop-color:#EFEC1C"/>
		</linearGradient>
		
			<path id="Pfad_2448_00000127043173505851396240000003303372418165956768_" style="fill:url(#Pfad_2448_00000146468671699831560480000003680098190271416223_);" d="
			M239.6,455.5v51.4h22.9v-31.5h64.4l18.4,31.5h26.4l-22.1-35.4c7.6-3.4,13.5-9.9,16.4-18c1.5-4.3,2.3-8.8,2.3-13.3
			c0.1-6.4-1.5-12.6-4.5-18.1c-3-5.3-7.4-9.7-12.6-12.6c-5.6-3.1-11.9-4.6-18.2-4.5h-93.2v19.9h22.9h69.3c2.4,0,4.7,0.7,6.7,2.1
			c2.1,1.4,3.8,3.4,4.9,5.7c2.4,4.8,2.4,10.6,0,15.4c-1.1,2.2-2.8,4.1-4.9,5.5c-2,1.4-4.4,2.1-6.7,2h-69.3L239.6,455.5z"/>
		
			<linearGradient id="Pfad_2448_00000117635145097916142640000000468488802749991072_" gradientUnits="userSpaceOnUse" x1="95.343" y1="455.9676" x2="233.0862" y2="455.9676">
			<stop  offset="0" style="stop-color:#EDF406;stop-opacity:0"/>
			<stop  offset="0.2693" style="stop-color:#EEF10E;stop-opacity:0.2933"/>
			<stop  offset="0.9183" style="stop-color:#EFEC1C"/>
		</linearGradient>
		
			<path id="Pfad_2448_00000084501372445213649220000003652047723560917890_" style="fill:url(#Pfad_2448_00000117635145097916142640000000468488802749991072_);" d="
			M95.3,455.5v51.4h22.9v-31.5h70.1l18.4,31.5h26.4l-22.1-35.4c7.6-3.4,13.5-9.9,16.4-18c1.5-4.3,2.3-8.8,2.3-13.3
			c0.1-6.4-1.5-12.6-4.5-18.1c-3-5.3-7.4-9.7-12.6-12.6c-5.6-3.1-11.9-4.6-18.2-4.5H95.4v19.9h22.9h74.9c2.4,0,4.7,0.7,6.7,2.1
			c2.1,1.4,3.8,3.4,4.9,5.7c2.4,4.8,2.4,10.6,0,15.4c-1.1,2.2-2.8,4.1-4.9,5.5c-2,1.4-4.4,2.1-6.7,2h-74.9L95.3,455.5z"/>
		
			<linearGradient id="Pfad_2448_00000183948756843911940290000017047903944593529003_" gradientUnits="userSpaceOnUse" x1="761.3013" y1="455.9676" x2="863.9338" y2="455.9676">
			<stop  offset="0" style="stop-color:#EDF406;stop-opacity:0"/>
			<stop  offset="0.2693" style="stop-color:#EEF10E;stop-opacity:0.2933"/>
			<stop  offset="0.9183" style="stop-color:#EFEC1C"/>
		</linearGradient>
		
			<path id="Pfad_2448_00000043450207500637361640000003367332129806461070_" style="fill:url(#Pfad_2448_00000183948756843911940290000017047903944593529003_);" d="
			M761.3,455.5v51.4h22.9v-31.5h35l18.4,31.5h26.4l-22.1-35.4c7.6-3.4,13.5-9.9,16.4-18c1.5-4.3,2.3-8.8,2.3-13.3
			c0.1-6.4-1.5-12.6-4.5-18.1c-3-5.3-7.4-9.7-12.6-12.6c-5.6-3.1-11.9-4.6-18.2-4.5h-63.7v19.9h22.9h39.8c2.4,0,4.7,0.7,6.7,2.1
			c2.1,1.4,3.8,3.4,4.9,5.7c2.4,4.8,2.4,10.6,0,15.4c-1.1,2.2-2.8,4.1-4.9,5.5c-2,1.4-4.4,2.1-6.7,2h-39.8L761.3,455.5z"/>
	</g>
</g>
</svg>
