<svg xmlns="http://www.w3.org/2000/svg" width="320" height="200" viewBox="0 0 320 200">
  <g id="Gruppe_1583" data-name="Gruppe 1583" transform="translate(-150 -6049)">
    <rect id="_2media_bildwelt_H6A21251_web" data-name="2media_bildwelt_H6A21251_web" width="320" height="200" transform="translate(150 6049)" fill="#353da4"/>
    <g id="Gruppe_1582" data-name="Gruppe 1582" transform="translate(101.818 199.579)">
      <g id="Gruppe_1581" data-name="Gruppe 1581" transform="translate(159.182 5894.421)">
        <path id="Pfad_1846" data-name="Pfad 1846" d="M368.385,231.494V219.3c-20.3,0-36.764,17.061-36.764,38.106,0,.048.008.094.008.143h11.762c0-.049-.008-.1-.008-.143,0-14.313,11.2-25.914,25-25.914" transform="translate(-331.621 -219.302)" fill="#ffa58d"/>
      </g>
      <path id="Pfad_2387" data-name="Pfad 2387" d="M403.21,311.32l-25.683-34.676,23.866-29.229H387.125L361.7,278.806V247.415H349.941v63.9H361.7V295.062l8.043-9.771,18.938,26.028Z" transform="translate(-165.756 5685.253)" fill="#ffa58d"/>
    </g>
  </g>
</svg>
