<?xml version="1.0" encoding="UTF-8"?>
<svg xmlns="http://www.w3.org/2000/svg" xmlns:xlink="http://www.w3.org/1999/xlink" width="283pt" height="283pt" viewBox="0 0 283 283" version="1.1">
<g id="surface1">
<rect x="0" y="0" width="283" height="283" style="fill:rgb(100%,100%,100%);fill-opacity:1;stroke:none;"/>
<path style=" stroke:none;fill-rule:evenodd;fill:rgb(89.0625%,0%,8.616638%);fill-opacity:1;" d="M 6.003906 180.253906 L 277.460938 180.253906 L 277.460938 103.207031 L 6.003906 103.207031 Z M 6.003906 180.253906 "/>
<path style=" stroke:none;fill-rule:evenodd;fill:rgb(100%,100%,100%);fill-opacity:1;" d="M 266.628906 168.148438 L 266.628906 148.074219 C 266.628906 138.164063 261.921875 132.921875 253.300781 132.921875 C 247.664063 132.921875 243.15625 135.476563 240.4375 140.019531 L 240.4375 133.878906 L 229.367188 133.878906 L 229.367188 168.148438 L 241.5 168.148438 L 241.5 151.652344 C 241.5 145.898438 244.484375 142.574219 248.527344 142.574219 C 252.570313 142.574219 254.496094 145.132813 254.496094 150.566406 L 254.496094 168.148438 Z M 266.628906 168.148438 "/>
<path style=" stroke:none;fill-rule:evenodd;fill:rgb(100%,100%,100%);fill-opacity:1;" d="M 113.660156 168.578125 L 113.660156 133.972656 L 101.804688 133.972656 L 101.804688 148.753906 C 101.804688 155.917969 99.355469 159.46875 95.035156 159.46875 C 91.039063 159.46875 89.171875 156.886719 89.171875 151.398438 L 89.171875 133.972656 L 77.3125 133.972656 L 77.3125 153.917969 C 77.3125 163.988281 81.953125 169.160156 90.394531 169.160156 C 95.808594 169.160156 100.191406 166.695313 102.898438 162.113281 L 102.898438 168.578125 Z M 113.660156 168.578125 "/>
<path style=" stroke:none;fill-rule:evenodd;fill:rgb(100%,100%,100%);fill-opacity:1;" d="M 147.546875 167.09375 L 147.226563 158.332031 C 145.035156 159.636719 142.714844 160.257813 140.070313 160.257813 C 133.820313 160.257813 129.886719 156.59375 129.886719 151.058594 C 129.886719 145.40625 133.625 141.800781 139.554688 141.800781 C 141.746094 141.800781 144.003906 142.359375 146.386719 143.601563 L 147.160156 135.273438 C 143.679688 134.09375 140.457031 133.472656 137.492188 133.472656 C 125.054688 133.472656 117.707031 140.308594 117.707031 151.121094 C 117.707031 161.5625 125.3125 168.660156 136.589844 168.660156 C 140.78125 168.660156 144.519531 168.097656 147.546875 167.09375 Z M 147.546875 167.09375 "/>
<path style=" stroke:none;fill-rule:evenodd;fill:rgb(100%,100%,100%);fill-opacity:1;" d="M 187.359375 168.148438 L 187.359375 147.941406 C 187.359375 137.964844 182.699219 132.6875 174.167969 132.6875 C 169.050781 132.6875 164.980469 134.746094 162.484375 138.414063 L 162.484375 117.820313 L 150.476563 117.820313 L 150.476563 168.148438 L 162.484375 168.148438 L 162.484375 151.542969 C 162.484375 145.75 165.4375 142.40625 169.441406 142.40625 C 173.445313 142.40625 175.347656 144.980469 175.347656 150.449219 L 175.347656 168.148438 Z M 187.359375 168.148438 "/>
<path style=" stroke:none;fill-rule:evenodd;fill:rgb(100%,100%,100%);fill-opacity:1;" d="M 224.84375 169.203125 L 224.84375 150.976563 C 224.84375 139.050781 219.757813 133.410156 208.0625 133.410156 C 202.777344 133.410156 198.152344 134.1875 194.058594 135.875 L 194.253906 143.71875 C 198.417969 141.835938 201.984375 140.863281 204.761719 140.863281 C 210.375 140.863281 213.414063 142.9375 213.414063 146.765625 L 213.414063 147.21875 L 208.65625 147.21875 C 195.90625 147.21875 189.761719 150.78125 189.761719 158.5625 C 189.761719 165.171875 194.253906 169.59375 201.523438 169.59375 C 207.074219 169.59375 211.101563 167.894531 214.074219 163.8125 L 214.339844 169.203125 Z M 213.414063 154.414063 C 213.414063 159.210938 210.175781 162.257813 205.949219 162.257813 C 203.109375 162.257813 201.324219 160.570313 201.324219 158.171875 C 201.324219 154.671875 204.5625 153.375 211.367188 153.375 L 213.414063 153.375 Z M 213.414063 154.414063 "/>
<path style=" stroke:none;fill-rule:evenodd;fill:rgb(100%,100%,100%);fill-opacity:1;" d="M 78.140625 167.714844 L 71.554688 144.726563 C 68.636719 149.398438 66.3125 152.085938 60.894531 153.546875 L 60.761719 151.941406 C 70.371094 145.386719 70.738281 142.933594 74.171875 131.402344 C 76.722656 130.851563 79.703125 131.230469 81.328125 129.808594 C 80.300781 128.550781 76.566406 129.351563 74.34375 128.875 C 72.980469 125.222656 69.609375 122.878906 64.042969 123.667969 L 60.65625 113.074219 L 33.828125 113.074219 L 25.476563 137.636719 L 14.167969 137.699219 C 14.234375 140.09375 15.289063 142.363281 16.777344 143.578125 C 15.109375 145.117188 14.238281 146.902344 14.238281 149.429688 L 20.84375 149.375 L 14.285156 167.714844 L 32.15625 167.714844 L 35.867188 152.933594 L 45.058594 152.933594 L 49.507813 167.714844 Z M 63.152344 124.152344 C 63.277344 124.089844 60.183594 124.152344 58.453125 126.871094 C 56.71875 129.59375 57.957031 131.941406 57.957031 131.941406 C 57.957031 131.941406 50.90625 135.589844 48.125 137.632813 C 45.339844 139.671875 37.734375 146.472656 37.734375 146.472656 L 53.566406 146.597656 L 51.214844 148.824219 L 56.101563 166.199219 L 52.453125 166.324219 L 48 149.8125 L 28.828125 149.8125 C 28.828125 149.8125 28.398438 148.574219 29.324219 147.464844 C 30.25 146.351563 31.363281 145.980469 31.363281 145.980469 L 18.5 146.042969 C 19.214844 143.449219 21.097656 143.875 21.65625 143.566406 C 21.097656 143.074219 18.6875 142.765625 18.75 140.289063 L 41.199219 140.289063 C 41.199219 140.289063 45.773438 136.332031 48.617188 134.664063 C 51.464844 132.996094 54.433594 131.882813 54.433594 131.882813 C 54.15625 123.648438 61.34375 123.109375 63.152344 124.152344 Z M 56.597656 153.089844 L 60 153.089844 L 63.027344 166.136719 L 59.6875 166.136719 C 59.6875 166.136719 56.535156 153.089844 56.597656 153.089844 Z M 67.480469 126.6875 L 66.613281 129.964844 L 69.523438 128.171875 C 69.523438 128.171875 69.6875 129.664063 69.089844 130.855469 C 67.65625 133.707031 62.25 132.308594 63.769531 128.171875 C 64.726563 125.566406 67.480469 126.6875 67.480469 126.6875 Z M 50.421875 129.882813 L 41.898438 135.496094 L 47.476563 118.976563 Z M 50.421875 129.882813 "/>
</g>
</svg>
