<?xml version="1.0" encoding="UTF-8"?>
<svg xmlns="http://www.w3.org/2000/svg" xmlns:xlink="http://www.w3.org/1999/xlink" width="193pt" height="193pt" viewBox="0 0 193 193" version="1.1">
<g id="surface1">
<path style=" stroke:none;fill-rule:evenodd;fill:rgb(100%,100%,100%);fill-opacity:1;" d="M 0 0.242188 L 192.757813 0.242188 L 192.757813 193 L 0 193 L 0 0.242188 "/>
<path style=" stroke:none;fill-rule:evenodd;fill:rgb(73.699951%,74.499512%,75.299072%);fill-opacity:1;" d="M 160.035156 89.121094 C 158.175781 93.628906 157.105469 94.730469 155.703125 99.390625 C 155.46875 100.164063 158.402344 99.035156 159.007813 98.542969 C 161.128906 97.050781 161.714844 96.496094 165.183594 93.210938 C 166.425781 92.140625 167.421875 93.953125 167.839844 95.140625 C 167.875 96.269531 167.148438 96.058594 166.109375 96.851563 C 161.980469 100.023438 161.644531 101.640625 157.542969 103.726563 C 157.304688 103.847656 157.3125 104.226563 157.484375 104.527344 C 158.324219 106.015625 160.21875 106.738281 161.621094 106.320313 C 163.191406 105.851563 163.820313 104.082031 165.042969 103.34375 C 165.910156 102.820313 167.234375 104.902344 166.84375 106.082031 C 166.378906 107.484375 164.148438 109.707031 162.109375 110.410156 C 158.535156 111.644531 156.9375 106.222656 154.148438 104.851563 C 153.234375 104.402344 153.195313 106.214844 152.769531 107.519531 C 152.316406 109.035156 152.050781 111.179688 150.214844 110.390625 C 149.359375 109.941406 148.355469 109.050781 148.050781 108.085938 C 145.324219 109.539063 142.082031 111.421875 139.636719 110.574219 C 138.804688 110.054688 136.367188 108.15625 136.300781 106.300781 C 136.230469 104.40625 141.394531 96.863281 141.671875 94.949219 C 141.773438 94.238281 140.003906 94.742188 139.183594 94.636719 C 137.921875 94.472656 136.609375 94.816406 136.878906 93.894531 C 137.285156 92.503906 136.484375 91.742188 138.132813 91.453125 C 141.003906 90.941406 142.695313 92.066406 143.496094 90.585938 C 144.085938 88.738281 144.726563 86.960938 145.261719 85.765625 C 145.386719 85.515625 145.460938 85.191406 145.894531 85.0625 C 146.511719 84.886719 147.863281 85.800781 148.695313 86.691406 C 148.980469 87.089844 148.558594 87.640625 148.445313 87.910156 C 148.222656 88.421875 147.371094 89.800781 146.933594 90.867188 C 146.746094 91.503906 148.640625 91.320313 149.585938 91.261719 C 151.339844 91.152344 152.84375 91 152.464844 92.082031 C 152.339844 92.4375 151.480469 94.03125 151.144531 94.085938 C 149.003906 94.433594 146.34375 94.574219 145.914063 94.789063 C 145.023438 95.234375 140.28125 106.988281 140.8125 107.113281 C 142.195313 107.449219 144.488281 106.457031 146.597656 105.019531 C 147.878906 104.195313 148.828125 103.871094 149.476563 103.875 C 150.304688 102.339844 151.238281 100.84375 152.453125 98.128906 C 154.398438 93.519531 155.457031 89.941406 156.875 86.382813 C 156.929688 86.25 157.226563 85.5625 157.289063 85.46875 C 157.792969 84.6875 158.644531 85.074219 160.285156 86.378906 C 160.921875 86.890625 160.878906 87.222656 160.648438 87.734375 C 160.546875 87.960938 160.167969 88.796875 160.035156 89.121094 Z M 28.644531 87.957031 C 30.382813 86.199219 33.390625 86.984375 31.21875 89.535156 C 34.078125 87.820313 36.59375 90.476563 32.832031 92.125 C 36.082031 91.65625 36.207031 94.03125 34.382813 94.441406 C 37.609375 94.621094 37.136719 98.042969 34.363281 97.875 C 37.117188 98.667969 36.5625 102.371094 34.222656 100.644531 C 35.445313 102.820313 34.183594 103.878906 31.761719 102.148438 C 34.496094 106.117188 32.253906 109.714844 30.769531 106.730469 C 31.058594 109.210938 29.273438 112.054688 27.433594 107.140625 C 27.734375 112.601563 23.230469 113.792969 23.910156 105.699219 C 22.058594 113.558594 17.921875 112.679688 19.964844 104.351563 C 19.324219 105.289063 19.019531 105.6875 18.277344 107.039063 C 16.46875 110.332031 12.941406 109.546875 16.472656 102.839844 C 12.394531 105.507813 11.539063 103.777344 13.171875 101.167969 C 9.714844 103.167969 9.695313 99.664063 12.535156 98.382813 C 9.09375 98.203125 9.617188 95.394531 13.941406 94.667969 C 11.035156 93.285156 10.648438 91.210938 14.6875 91.738281 C 12.003906 90.179688 13.410156 88.386719 17.144531 89.398438 C 14.980469 86.800781 17.308594 84.871094 20.160156 87.796875 C 19.640625 84.867188 21.5625 84.285156 22.851563 86.660156 C 23.324219 83.230469 25.980469 83.195313 25.949219 86.75 C 27.472656 83.75 30.109375 85.171875 28.644531 87.957031 Z M 167.84375 106.484375 C 167.515625 102.863281 167.992188 100.089844 171.253906 95.28125 C 173.03125 92.71875 174.617188 91.460938 176.6875 90.988281 C 179.511719 90.792969 183.015625 93.871094 183.207031 95.945313 C 183.578125 98.890625 180.992188 102.441406 179.6875 104.925781 C 178.644531 107.351563 180.070313 107.355469 181.960938 106.554688 C 183.140625 106.0625 184.769531 108.085938 184.09375 108.890625 C 182.503906 110.332031 180.734375 111.140625 179.15625 110.460938 C 178.152344 109.761719 177.136719 108.03125 176.96875 108.277344 C 176.679688 108.691406 174.730469 110.804688 172.84375 110.699219 C 171.585938 110.738281 168.410156 108.640625 167.84375 106.484375 Z M 177.742188 100.511719 C 175.996094 104.132813 172.1875 107.558594 171.78125 107.023438 C 170.535156 105.367188 172.304688 101.042969 173.46875 99 C 174.890625 96.503906 176.726563 92.515625 178.707031 93.808594 C 181.09375 95.371094 178.148438 99.667969 177.742188 100.511719 Z M 120.066406 107.265625 C 118.28125 102.933594 120.863281 97.484375 123.695313 94.273438 C 125.011719 92.78125 126.679688 90.601563 129.011719 91.03125 C 132.003906 91.589844 134.59375 93.316406 135.691406 96.476563 C 135.949219 101.371094 128.386719 111.09375 125.503906 110.792969 C 122.730469 110.578125 121.117188 108.851563 120.066406 107.265625 Z M 131.007813 94 C 131.964844 95.027344 131.527344 96.546875 131.269531 97.695313 C 129.3125 101.234375 127.382813 105.261719 123.804688 107.117188 C 123.226563 106.0625 123.289063 104.769531 123.636719 103.578125 C 124.175781 101.746094 128.464844 91.011719 131.007813 94 Z M 73.589844 106.523438 C 73.214844 106.8125 72.800781 107.078125 72.328125 107.320313 C 69.425781 108.789063 66.546875 111.476563 63.128906 110.621094 C 62.542969 110.414063 59.527344 107.96875 59.460938 106.117188 C 59.390625 104.222656 64.546875 96.3125 64.824219 94.398438 C 64.925781 93.6875 63.15625 94.1875 62.339844 94.082031 C 61.078125 93.921875 59.917969 94.304688 60.035156 93.339844 C 60.269531 92.132813 59.886719 91.152344 61.289063 90.898438 C 64.160156 90.390625 65.847656 91.515625 66.652344 90.03125 C 67.859375 87.859375 67.574219 87.835938 68.238281 85.796875 C 68.421875 85.285156 68.695313 85.066406 69.019531 85.097656 C 69.46875 85.144531 70.023438 85.277344 71.15625 85.925781 C 71.742188 86.300781 71.910156 86.710938 71.609375 87.21875 C 71.46875 87.460938 71.292969 87.769531 71.074219 88.152344 C 70.160156 89.921875 70.882813 88.523438 70.035156 90.464844 C 69.847656 91.101563 71.796875 90.769531 72.738281 90.710938 C 74.496094 90.601563 76 90.445313 75.621094 91.527344 C 75.496094 91.886719 74.636719 93.476563 74.300781 93.53125 C 72.160156 93.882813 69.035156 94.074219 68.496094 94.292969 C 67.363281 95.527344 64.152344 104.40625 63.601563 106.445313 C 65.65625 106.589844 67.4375 105.207031 69.242188 104.476563 C 69.792969 104.253906 72.035156 103.132813 73.433594 102.667969 C 74.347656 99.53125 75.441406 96.71875 77.539063 94.335938 C 78.855469 92.84375 80.523438 90.660156 82.855469 91.097656 C 85.84375 91.652344 88.4375 93.378906 89.535156 96.539063 C 89.792969 101.433594 82.21875 111.039063 79.335938 110.738281 C 76.597656 111.042969 75.449219 109.265625 73.910156 107.328125 C 73.796875 107.050781 73.6875 106.785156 73.589844 106.523438 Z M 84.851563 94.0625 C 85.808594 94.871094 85.578125 96.335938 85.113281 97.757813 C 83.105469 102.445313 81.226563 105.324219 77.648438 107.179688 C 77.070313 106.125 77.132813 104.832031 77.480469 103.640625 C 78.019531 101.808594 82.308594 91.074219 84.851563 94.0625 Z M 100.410156 88.765625 C 98.554688 93.273438 97.480469 94.375 96.082031 99.035156 C 95.847656 99.808594 98.78125 98.675781 99.386719 98.1875 C 101.507813 96.695313 102.089844 96.140625 105.5625 92.855469 C 106.804688 91.78125 107.796875 93.597656 108.21875 94.78125 C 108.253906 95.914063 107.527344 95.703125 106.488281 96.496094 C 102.359375 99.664063 102.019531 101.285156 97.921875 103.371094 C 97.679688 103.492188 97.691406 103.871094 97.859375 104.171875 C 98.703125 105.660156 100.59375 106.746094 102 106.332031 C 103.570313 105.863281 104.199219 104.09375 105.421875 103.355469 C 106.285156 102.832031 107.613281 104.910156 107.222656 106.089844 C 106.753906 107.496094 104.570313 109.625 102.527344 110.332031 C 98.957031 111.5625 96.792969 105.777344 94.527344 104.496094 C 93.613281 104.046875 93.574219 105.859375 93.148438 107.164063 C 92.640625 108.710938 92.480469 111.367188 90.429688 110.289063 C 89.246094 109.667969 87.9375 107.953125 88.4375 106.613281 C 89.652344 103.355469 90.882813 102.125 92.832031 97.773438 C 94.777344 93.164063 95.835938 89.585938 97.253906 86.027344 C 97.734375 84.824219 98.164063 84.644531 100.410156 86.210938 C 101.261719 86.871094 101.015625 87.445313 100.777344 87.96875 C 100.675781 88.191406 100.542969 88.445313 100.410156 88.765625 Z M 120.496094 90.980469 C 120.988281 91.160156 121.488281 92.605469 121.59375 93.28125 C 122.082031 95.597656 119.90625 95.464844 118.007813 96.820313 C 115.332031 98.582031 114.027344 102.675781 112.902344 105.453125 C 112.59375 106.203125 112.304688 106.820313 111.871094 108.027344 C 111.351563 109.632813 111.765625 110.382813 110.617188 110.539063 C 109.222656 110.589844 107.878906 109.167969 107.914063 107.847656 C 109.074219 101.746094 113.097656 96.359375 114.066406 91.230469 C 114.441406 89.777344 116.351563 91.082031 116.539063 91.984375 C 116.726563 92.542969 115.882813 94.261719 116.230469 94.269531 C 118.210938 92.234375 119.734375 90.308594 120.496094 90.980469 Z M 42.988281 110.652344 C 41.445313 110.105469 38.605469 107.558594 38.273438 105.785156 C 37.917969 103.886719 40.53125 101.6875 42.425781 101.769531 C 43.054688 102.203125 44.144531 103.128906 44.257813 103.972656 C 44.175781 104.628906 43.324219 105.402344 42.191406 106.449219 C 43.402344 108.003906 54.640625 100.820313 54.28125 98.324219 C 52.65625 97.691406 50.023438 98.925781 48.164063 98.945313 C 46.933594 98.957031 45.285156 97.882813 44.9375 96.042969 C 48.050781 89.847656 54.695313 85.429688 58.8125 84.972656 C 60.066406 85.089844 61.148438 86.253906 61.285156 87.191406 C 61.3125 87.65625 60.597656 87.5 59.367188 87.792969 C 55.566406 88.699219 51.914063 92.671875 51.171875 94.046875 C 51.015625 94.308594 51.050781 94.511719 51.300781 94.53125 C 52.957031 94.445313 55.238281 94.078125 56.550781 94.644531 C 57.582031 95.570313 58.695313 96.84375 58.96875 98.054688 C 57.53125 103.453125 47.453125 112.085938 42.988281 110.652344 "/>
<path style="fill:none;stroke-width:22.2315;stroke-linecap:round;stroke-linejoin:round;stroke:rgb(73.699951%,74.499512%,75.299072%);stroke-opacity:1;stroke-miterlimit:2.6131;" d="M 1644.788822 1011.459429 C 1625.678776 967.56727 1614.678455 956.841456 1600.265626 911.46594 C 1597.856797 903.93505 1628.007311 914.927107 1634.23012 919.719492 C 1656.030026 934.248785 1662.052099 939.649727 1697.702773 971.636993 C 1710.469569 982.058529 1720.666946 964.410381 1725.002839 952.847802 C 1725.364164 941.855745 1717.896793 943.909624 1707.217649 936.18856 C 1664.782106 905.342338 1661.32945 889.557896 1619.174937 869.247313 C 1616.72596 868.068234 1616.806255 864.378858 1618.572729 861.450179 C 1627.204368 846.95892 1646.675738 839.922482 1661.088567 843.992206 C 1677.227724 848.556382 1683.691416 865.786146 1696.257476 872.974723 C 1705.170144 878.071386 1718.78003 857.836873 1714.765315 846.312328 C 1709.987803 832.657835 1687.063777 811.016034 1666.106962 804.16977 C 1629.372314 792.150774 1612.952128 844.943076 1584.287058 858.29329 C 1574.892624 862.667292 1574.491152 845.019145 1570.115112 832.315522 C 1565.458042 817.55802 1562.728036 796.676915 1543.858873 804.359944 C 1535.066646 808.733946 1524.748827 817.405881 1521.617348 826.800476 C 1493.594634 812.651531 1460.272494 794.318757 1435.100228 802.572309 C 1426.629178 807.630937 1401.537206 826.153885 1400.854704 844.18238 C 1400.132055 862.629257 1453.206595 936.074456 1456.057043 954.711508 C 1457.100869 961.633841 1438.87406 956.727352 1430.483305 957.754292 C 1417.515774 959.351753 1404.026329 956.004691 1406.796483 964.980903 C 1410.971787 978.521292 1402.74162 985.938078 1419.68372 988.752653 C 1449.19188 993.735212 1466.575598 982.78119 1474.805765 997.196379 C 1480.867985 1015.186839 1487.411972 1032.492673 1492.952279 1044.131322 C 1494.236988 1046.565549 1494.999784 1049.722437 1499.456118 1050.977586 C 1505.799369 1052.689152 1519.690285 1043.789008 1528.241629 1035.117074 C 1531.172371 1031.237525 1526.836479 1025.874618 1525.672211 1023.288251 C 1523.383823 1018.305693 1514.631743 1004.841374 1510.135262 994.457873 C 1508.248346 988.258201 1527.679569 990.045836 1537.395181 990.616358 C 1555.421254 991.681333 1570.877908 993.16469 1566.983634 982.629051 C 1565.698925 979.167884 1556.866551 963.68772 1553.413896 963.117198 C 1531.413254 959.732101 1504.073041 958.362848 1499.656854 956.270934 C 1490.503303 951.934967 1441.764656 837.488255 1447.224669 836.271141 C 1461.436762 833.000148 1485.003142 842.660988 1506.682606 856.695829 C 1519.850874 864.683137 1529.606632 867.840025 1536.27106 867.80199 C 1544.74211 882.749667 1554.377427 897.316995 1566.90334 923.751181 C 1586.856476 968.632244 1597.736356 1003.472121 1612.309773 1038.121823 C 1612.871833 1039.415007 1615.923017 1046.109131 1616.565372 1047.021966 C 1621.744355 1054.628926 1630.496435 1050.863481 1647.35824 1038.159858 C 1653.902226 1033.215334 1653.460608 1029.944341 1651.091926 1024.961783 C 1650.0481 1022.755764 1646.153825 1014.654352 1644.788822 1011.459429 Z M 294.399093 1022.793799 C 312.264577 1039.947494 343.177887 1032.264464 320.856068 1007.42774 C 350.243786 1024.125017 376.098555 998.261353 337.436844 982.210668 C 370.839277 986.774844 372.123986 963.68772 353.375265 959.656032 C 386.536815 957.906431 381.679009 924.587946 353.174529 926.223443 C 381.478274 918.502378 375.777377 882.445388 351.729231 899.25677 C 364.295291 878.071386 351.32776 867.763955 326.436523 884.651406 C 354.539532 845.970015 331.495065 810.939965 316.198998 839.998552 C 319.210035 815.846454 300.862785 788.15712 281.993622 836.004898 C 285.044806 782.832248 238.755135 771.231634 245.74074 850.039739 C 226.710988 773.513722 184.19515 782.071552 205.192113 863.161745 C 198.607979 854.033393 195.476501 850.153843 187.848542 836.993802 C 169.260408 804.930466 133.007527 812.575461 169.300556 877.881212 C 127.386925 851.903444 118.594698 868.75286 135.376209 894.160106 C 99.845976 874.686289 99.64524 908.803504 128.832223 921.278919 C 93.462578 923.028519 98.842297 950.37554 143.285199 957.450013 C 113.415715 970.914332 109.441146 991.110811 150.953305 985.976113 C 123.372209 1001.151998 137.825186 1018.609971 176.205866 1008.758958 C 153.964342 1034.0521 177.892047 1052.841291 207.239618 1024.391261 C 201.859899 1052.879326 221.612299 1058.546511 234.860861 1035.421353 C 239.718667 1068.815907 267.018733 1069.15822 266.697555 1034.546552 C 282.354946 1063.757278 309.454276 1049.912611 294.399093 1022.793799 Z M 1725.002839 842.394744 C 1721.670625 877.653003 1726.568578 904.657711 1760.051306 951.47855 C 1778.358409 976.429378 1794.658154 988.676584 1815.936147 993.278794 C 1844.96254 995.180534 1880.974539 965.209112 1882.94175 945.012634 C 1886.75573 916.334395 1860.178312 881.760762 1846.769162 857.570629 C 1836.049872 833.951018 1850.703584 833.912984 1870.134807 841.710118 C 1882.259248 846.502502 1899.000612 826.800476 1892.055154 818.965307 C 1875.715262 804.930466 1857.5286 797.057263 1841.309149 803.675318 C 1830.99133 810.483547 1820.55307 827.332963 1818.826742 824.936771 C 1815.855853 820.905082 1795.822422 800.328256 1776.391199 801.355195 C 1763.503962 800.974847 1730.864324 821.399535 1725.002839 842.394744 Z M 1826.775879 900.549953 C 1808.8301 865.291693 1769.686624 831.935174 1765.511319 837.145942 C 1752.704377 853.272697 1770.891038 895.37722 1782.854891 915.26942 C 1797.468455 939.573657 1816.337618 978.407188 1836.692226 965.817669 C 1861.222139 950.603749 1830.951183 908.76547 1826.775879 900.549953 Z M 1234.003125 834.787784 C 1215.655875 876.968377 1242.193145 930.026923 1271.299833 961.291528 C 1284.829424 975.820821 1301.932112 997.082274 1325.940111 992.860412 C 1356.652686 987.421435 1383.310397 970.648089 1394.591748 939.839901 C 1397.24146 892.182297 1319.516567 797.51368 1289.887966 800.44236 C 1261.383485 802.534274 1244.80271 819.345655 1234.003125 834.787784 Z M 1346.455308 963.953964 C 1356.291361 953.950812 1351.79488 939.155274 1349.145167 927.973043 C 1329.031442 893.513515 1309.198748 854.299636 1272.383806 836.233106 C 1266.482174 846.502502 1267.124528 859.092021 1270.697625 870.73067 C 1276.237933 888.530956 1320.31951 993.050586 1346.455308 963.953964 Z M 756.332266 842.014396 C 752.478139 839.199821 748.222541 836.613454 743.364735 834.255297 C 713.535398 819.954212 683.946945 793.78627 648.818183 802.115891 C 642.79611 804.131736 611.802506 827.94152 611.120004 845.970015 C 610.397355 864.416893 663.431748 941.437362 666.242049 960.074414 C 667.326022 966.996748 649.099213 962.128294 640.708458 963.155233 C 627.740927 964.71466 615.817221 960.98725 617.021636 970.381845 C 619.430465 982.134598 615.496044 991.681333 629.908873 994.153595 C 659.417032 999.098119 676.800751 988.144097 685.030918 1002.59732 C 697.436389 1023.744669 694.505647 1023.972878 701.330663 1043.865078 C 703.217579 1048.809602 706.02788 1050.939551 709.360094 1050.635272 C 713.977017 1050.178855 719.677913 1048.885672 731.320588 1042.571895 C 737.382809 1038.920554 739.068989 1034.9269 735.977658 1029.982376 C 734.532361 1027.624219 732.725739 1024.619469 730.477498 1020.892059 C 721.083064 1003.662295 728.510287 1017.278753 719.798355 998.375458 C 717.871291 992.175785 737.904722 995.408743 747.580186 995.979265 C 765.646406 997.082274 781.103061 998.565632 777.208787 988.029992 C 775.924078 984.530791 767.091704 969.050627 763.639049 968.51814 C 741.638407 965.095008 709.520683 963.231303 704.020522 961.101354 C 692.3377 949.082357 659.336738 862.629257 653.675989 842.775092 C 674.793393 841.367804 693.100496 854.832124 711.648482 861.944631 C 717.309231 864.112615 740.353698 875.028602 754.72638 879.554743 C 764.120815 910.096688 775.362018 937.481743 796.921041 960.682971 C 810.450632 975.212265 827.593468 996.473718 851.56132 992.21382 C 882.314041 986.812879 908.931605 970.039532 920.212956 939.231344 C 922.862668 891.57374 845.017333 798.046168 815.388732 800.974847 C 787.285723 798.008133 775.442312 815.352001 759.624333 834.179227 C 758.460066 836.879698 757.335945 839.466064 756.332266 842.014396 Z M 872.116663 963.345407 C 881.912569 955.472204 879.543887 941.209154 874.806523 927.364487 C 854.130738 881.722727 834.819956 853.69108 798.045161 835.62455 C 792.103382 845.893946 792.745737 858.483464 796.318833 870.084078 C 801.859141 887.922399 845.940718 992.442029 872.116663 963.345407 Z M 1031.982637 1014.95863 C 1012.912738 971.028437 1001.872271 960.302623 987.499589 914.927107 C 985.09076 907.396217 1015.241273 918.426309 1021.464083 923.180659 C 1043.263988 937.709952 1049.245914 943.148928 1084.936736 975.09816 C 1097.703531 985.55773 1107.900909 967.871548 1112.236802 956.347004 C 1112.598126 945.316912 1105.090608 947.370791 1094.451612 939.649727 C 1052.016068 908.803504 1048.523266 893.019062 1006.408899 872.708479 C 1003.919776 871.529401 1004.040217 867.840025 1005.766545 864.911345 C 1014.43833 850.420087 1033.909701 839.846412 1048.32253 843.916136 C 1064.461686 848.442277 1070.925378 865.672041 1083.451291 872.860619 C 1092.36396 877.957282 1106.013993 857.722768 1101.999277 846.236259 C 1097.181618 832.543731 1074.739358 811.814765 1053.742396 804.930466 C 1017.047895 792.949504 994.806371 849.279043 971.521021 861.754457 C 962.126586 866.128459 961.725115 848.480312 957.349075 835.776689 C 952.129945 820.752943 950.483911 794.851244 929.406655 805.348849 C 917.242066 811.396382 903.792769 828.093659 908.931605 841.139596 C 921.417371 872.860619 934.063725 884.84158 954.097155 927.212347 C 974.090439 972.093411 984.970318 1006.933288 999.543736 1041.58299 C 1004.481836 1053.297708 1008.898023 1055.047309 1031.982637 1039.795355 C 1040.734717 1033.367473 1038.205447 1027.776358 1035.75647 1022.679695 C 1034.712644 1020.511711 1033.347641 1018.001414 1031.982637 1014.95863 Z M 1238.419312 993.354864 C 1243.477854 991.605263 1248.61669 977.532387 1249.700663 970.952367 C 1254.719057 948.397731 1232.357092 949.690914 1212.845574 936.492839 C 1185.344772 919.339144 1171.935622 879.478674 1160.373241 852.473966 C 1157.201616 845.13325 1154.230727 839.123751 1149.814539 827.370998 C 1144.434821 811.738695 1148.650272 804.474049 1136.887155 802.914622 C 1122.554621 802.458204 1108.743999 816.264837 1109.105324 829.120599 C 1121.029029 888.530956 1162.340452 940.980945 1172.337094 990.920637 C 1176.191221 1005.069582 1195.82318 992.365959 1197.750243 983.579921 C 1199.677307 978.140944 1191.005521 961.405632 1194.578618 961.329563 C 1214.933226 981.145693 1230.590617 999.89685 1238.419312 993.354864 Z M 441.819449 801.811613 C 425.961322 807.136485 396.77434 831.935174 393.361832 849.202973 C 389.70844 867.687886 416.566888 889.101478 436.038258 888.302747 C 442.50195 884.080885 453.703007 875.066637 454.867274 866.85112 C 454.024184 860.461274 445.272104 852.930384 433.629429 842.737057 C 446.075047 827.599207 561.578414 897.545204 557.884876 921.849441 C 541.183659 928.011078 514.124476 915.992081 495.01443 915.801907 C 482.368076 915.725838 465.425976 926.147373 461.852879 944.061764 C 493.850162 1004.384956 562.140474 1047.402314 604.455576 1051.852386 C 617.342813 1050.711342 628.463575 1039.376972 629.868726 1030.24862 C 630.149756 1025.722479 622.802826 1027.243871 610.156472 1024.391261 C 571.09329 1015.567187 533.555699 976.885796 525.92774 963.497546 C 524.321854 960.949215 524.683178 958.971405 527.252596 958.781231 C 544.27499 959.617997 567.720929 963.193268 581.210373 957.678222 C 591.809222 948.663974 603.251162 936.26463 606.061463 924.473842 C 591.287309 871.947783 487.707648 787.852841 441.819449 801.811613 Z M 441.819449 801.811613 " transform="matrix(0.0972983,0,0,-0.102702,0,193)"/>
<path style="fill:none;stroke-width:16.6721;stroke-linecap:round;stroke-linejoin:round;stroke:rgb(100%,100%,100%);stroke-opacity:1;stroke-miterlimit:2.6131;" d="M 1626.481719 1034.318343 C 1607.41182 990.426184 1596.371352 979.700371 1581.998671 934.324855 C 1579.589841 926.75593 1609.740355 937.786022 1615.963164 942.540372 C 1637.722923 957.069665 1643.744996 962.508642 1679.435817 994.457873 C 1692.202613 1004.917443 1702.399991 987.269296 1706.735883 975.706717 C 1707.097208 964.676625 1699.629837 966.768539 1688.950693 959.00944 C 1646.51515 928.163217 1643.022347 912.41681 1600.907981 892.106227 C 1598.459004 890.927148 1598.539299 887.237773 1600.265626 884.309093 C 1608.937412 869.7798 1628.408783 862.781397 1642.821611 866.85112 C 1658.960768 871.377261 1665.42446 888.607026 1677.950373 895.795603 C 1686.903188 900.930301 1700.513074 880.657753 1696.498359 869.171243 C 1691.6807 855.478715 1668.796821 833.874949 1647.840006 826.99065 C 1611.105358 815.009688 1594.685172 867.763955 1566.020103 881.152205 C 1556.625668 885.526207 1556.224197 867.840025 1551.848157 855.174437 C 1547.191087 840.3789 1544.420933 819.535829 1525.591917 827.218859 C 1516.79969 831.592861 1506.441724 840.22676 1503.350393 849.621356 C 1475.327678 835.47241 1441.965391 817.177672 1416.833272 825.431223 C 1408.322075 830.451817 1383.230103 848.974764 1382.587748 867.041294 C 1381.865099 885.488172 1434.939639 958.93337 1437.74994 977.570422 C 1438.793766 984.454721 1420.607105 979.586267 1412.216349 980.613206 C 1399.248818 982.210668 1385.759373 978.825571 1388.529527 987.839818 C 1392.704831 1001.342172 1384.474665 1008.758958 1401.416764 1011.611568 C 1430.924924 1016.556092 1448.308642 1005.60207 1456.538809 1020.055293 C 1462.60103 1038.045754 1469.145016 1055.351588 1474.685323 1066.952202 C 1475.970032 1069.424463 1476.692681 1072.581352 1481.149015 1073.798465 C 1487.492266 1075.548066 1501.423329 1066.647923 1509.974673 1057.975989 C 1512.905416 1054.096439 1508.569523 1048.733532 1507.405255 1046.109131 C 1505.116867 1041.126573 1496.32464 1027.700288 1491.868306 1017.316788 C 1489.941243 1011.117116 1509.412613 1012.866716 1519.088078 1013.475273 C 1537.154298 1014.502213 1552.610953 1016.023605 1548.716679 1005.487965 C 1547.43197 1002.026798 1538.599595 986.5086 1535.14694 985.976113 C 1513.146299 982.552981 1485.806086 981.221763 1481.389898 979.091814 C 1472.236347 974.793882 1423.457553 860.347169 1428.917566 859.130056 C 1443.169806 855.859063 1466.736187 865.519902 1488.415651 879.516709 C 1501.583918 887.504016 1511.339677 890.69894 1518.004104 890.660905 C 1526.475154 905.570546 1536.110472 920.175909 1548.596237 946.57206 C 1568.589521 991.491159 1579.4694 1026.293001 1594.042817 1060.980738 C 1594.604877 1062.273921 1597.656061 1068.930011 1598.298416 1069.880881 C 1603.477399 1077.449806 1612.229479 1073.722396 1629.051137 1060.980738 C 1635.635271 1056.036214 1635.193652 1052.803256 1632.82497 1047.782662 C 1631.781144 1045.614679 1627.88687 1037.475232 1626.481719 1034.318343 Z M 1706.735883 865.253659 C 1703.403669 900.511918 1708.301622 927.516626 1741.78435 974.337464 C 1760.091453 999.288293 1776.351051 1011.535498 1797.669191 1016.137709 C 1826.695585 1018.039449 1862.707583 988.068027 1864.674794 967.871548 C 1868.488774 939.155274 1841.911357 904.619676 1828.502207 880.391509 C 1817.782916 856.809933 1832.436628 856.771898 1851.867851 864.530997 C 1863.992292 869.323382 1880.733656 849.659391 1873.788198 841.786187 C 1857.448306 827.789381 1839.261644 819.878143 1823.042193 826.496198 C 1812.724374 833.304427 1802.286114 850.153843 1800.559786 847.795686 C 1797.588897 843.725962 1777.555466 823.18717 1758.124243 824.176075 C 1745.237006 823.795727 1712.597368 844.220414 1706.735883 865.253659 Z M 1808.508923 923.370833 C 1790.563144 888.112573 1751.419668 854.794089 1747.244363 860.004856 C 1734.437421 876.093577 1752.624082 918.236135 1764.587935 938.128335 C 1779.201499 962.394537 1798.070663 1001.266102 1818.425271 988.638549 C 1842.955183 973.462664 1812.684227 931.624384 1808.508923 923.370833 Z M 1215.736169 857.608664 C 1197.388919 899.827292 1223.926189 952.885837 1253.032877 984.150443 C 1266.522321 998.679736 1283.665157 1019.903154 1307.673156 1015.681292 C 1338.38573 1010.28035 1365.003294 993.468968 1376.324792 962.698816 C 1378.974504 915.003177 1301.249611 820.372595 1271.580863 823.26324 C 1243.116529 825.393189 1226.535754 842.166535 1215.736169 857.608664 Z M 1328.188352 986.774844 C 1337.984258 976.809726 1333.527924 961.976154 1330.878212 950.831958 C 1310.764487 916.334395 1290.891645 877.120516 1254.11685 859.092021 C 1248.215218 869.323382 1248.857573 881.950936 1252.430669 893.55155 C 1257.93083 911.389871 1302.052554 1015.871466 1328.188352 986.774844 Z M 738.025163 864.873311 C 734.211184 862.020701 729.955585 859.472369 725.097779 857.114212 C 695.228295 842.775092 665.679989 816.60715 630.51108 824.974806 C 624.529154 826.952615 593.495403 850.7624 592.853048 868.790895 C 592.1304 887.237773 645.124645 964.296277 647.975093 982.933329 C 649.018919 989.855662 630.832258 984.949173 622.401355 985.976113 C 609.473971 987.573575 597.550266 983.808129 598.75468 993.202725 C 601.16351 1004.955478 597.229088 1014.540248 611.641917 1016.974475 C 641.109929 1021.957033 658.493648 1011.003011 666.763962 1025.4182 C 679.169433 1046.565549 676.238691 1046.793758 683.063707 1066.685958 C 684.950623 1071.630482 687.720777 1073.798465 691.093138 1073.456152 C 695.710061 1073.037769 701.410957 1071.744586 713.053632 1065.392775 C 719.075706 1061.779469 720.802034 1057.785815 717.710703 1052.803256 C 716.265405 1050.445098 714.458783 1047.478384 712.170395 1043.712939 C 702.775961 1026.521209 710.243332 1040.099633 701.531399 1021.196337 C 699.604335 1015.0347 719.637766 1018.267658 729.313231 1018.83818 C 747.379451 1019.903154 762.836106 1021.386511 758.941831 1010.850872 C 757.657122 1007.389705 748.784601 991.909542 745.372093 991.377054 C 723.371452 987.953923 691.253727 986.052183 685.713419 983.960269 C 674.070744 971.903237 641.069782 885.488172 635.409033 865.595972 C 656.526437 864.226719 674.83354 877.653003 693.381526 884.765511 C 699.042275 886.971529 722.086743 897.887517 736.459424 902.375623 C 745.853859 932.955602 757.054915 960.340658 778.654085 983.541886 C 792.183676 998.033144 809.286365 1019.294597 833.294364 1015.072735 C 864.006938 1009.671793 890.664649 992.860412 901.946 962.090259 C 904.595712 914.39462 826.750377 820.867047 797.121777 823.795727 C 768.97862 820.829013 757.175357 838.172881 741.357377 857.000107 C 740.19311 859.700578 739.068989 862.324979 738.025163 864.873311 Z M 853.80956 986.166287 C 863.645614 978.331118 861.276931 964.068068 856.49942 950.223401 C 835.863782 904.581642 816.553 876.511959 779.738058 858.445429 C 773.836426 868.75286 774.478781 881.342379 778.051878 892.942993 C 783.592185 910.781314 827.673762 1015.262909 853.80956 986.166287 Z M 1013.715682 1037.77951 C 994.645783 993.887351 983.605315 983.161538 969.232633 937.786022 C 966.823804 930.217097 996.974318 941.247188 1003.197127 946.001538 C 1024.956885 960.530832 1030.978959 965.969808 1066.66978 997.91904 C 1079.436575 1008.37861 1089.633953 990.730463 1093.969846 979.167884 C 1094.33117 968.137792 1086.823652 970.229706 1076.184656 962.470607 C 1033.749112 931.624384 1030.25631 915.877977 988.141943 895.567394 C 985.65282 894.388315 985.773261 890.69894 987.499589 887.77026 C 996.131227 873.240967 1015.602598 862.667292 1030.055574 866.737016 C 1046.194731 871.263157 1052.658423 888.530956 1065.184335 895.681498 C 1074.097004 900.816196 1087.747037 880.581683 1083.692174 869.057139 C 1078.914662 855.402646 1056.472402 834.635645 1035.47544 827.789381 C 998.78094 815.808419 976.539415 872.137957 953.254065 884.613372 C 943.859631 888.987374 943.418012 871.301192 939.082119 858.635603 C 933.862989 843.573823 932.216955 817.710159 911.139699 828.169729 C 898.975111 834.217262 885.525813 850.914539 890.664649 863.99851 C 903.110268 895.719533 915.796769 907.700495 935.830199 950.033227 C 955.823483 994.952326 966.663215 1029.754167 981.27678 1064.441905 C 986.21488 1076.156623 990.631067 1077.906224 1013.715682 1062.654269 C 1022.467762 1056.188353 1019.938491 1050.635272 1017.489514 1045.500574 C 1016.445688 1043.332591 1015.040538 1040.860329 1013.715682 1037.77951 Z M 1220.152356 1016.213779 C 1225.210898 1014.464178 1230.349734 1000.353267 1231.433707 993.773247 C 1236.452101 971.218611 1214.090136 972.549829 1194.578618 959.351753 C 1167.077816 942.198058 1153.668666 902.337588 1142.106286 875.294846 C 1138.93466 867.992164 1135.963771 861.944631 1131.507436 850.191878 C 1126.167865 834.559575 1130.383316 827.294929 1118.620199 825.773537 C 1104.287665 825.279084 1090.436896 839.085716 1090.798221 851.979514 C 1102.762073 911.351836 1144.073496 963.801825 1154.070138 1013.779552 C 1157.924265 1027.890462 1177.556224 1015.224874 1179.483287 1006.438835 C 1181.410351 1000.999859 1172.698418 984.264547 1176.271515 984.150443 C 1196.626123 1004.004608 1212.323661 1022.755764 1220.152356 1016.213779 Z M 423.552493 824.632493 C 407.694366 829.957365 378.467237 854.794089 375.094876 872.023853 C 371.441485 890.5468 398.259785 911.960393 417.771302 911.123627 C 424.234994 906.939799 435.436051 897.925552 436.600318 889.672 C 435.717081 883.320189 427.005148 875.751263 415.322326 865.595972 C 427.808091 850.420087 543.311458 920.404118 539.61792 944.708355 C 522.916703 950.869993 495.85752 938.812961 476.747474 938.660822 C 464.10112 938.546718 447.15902 948.968253 443.585923 966.920678 C 475.543059 1027.205836 543.833371 1070.223194 586.18862 1074.711301 C 599.075857 1073.570257 610.19662 1062.235886 611.60177 1053.107534 C 611.8828 1048.543358 604.535871 1050.06475 591.889517 1047.21214 C 552.826334 1038.388067 515.288743 999.706676 507.660784 986.356461 C 506.054898 983.770095 506.416222 981.792285 508.98564 981.602111 C 526.008034 982.476911 549.453973 986.052183 562.943417 980.537137 C 573.542266 971.522889 584.984206 959.123544 587.794507 947.332756 C 572.980206 894.768663 469.440692 810.711756 423.552493 824.632493 Z M 423.552493 824.632493 " transform="matrix(0.0972983,0,0,-0.102702,0,193)"/>
<path style=" stroke:none;fill-rule:evenodd;fill:rgb(0%,65.098572%,31.399536%);fill-opacity:1;" d="M 158.253906 86.773438 C 156.398438 91.28125 155.324219 92.382813 153.925781 97.042969 C 153.691406 97.820313 156.625 96.6875 157.230469 96.199219 C 159.351563 94.707031 159.933594 94.148438 163.40625 90.867188 C 164.648438 89.792969 165.640625 91.605469 166.0625 92.792969 C 166.097656 93.925781 165.371094 93.710938 164.332031 94.507813 C 160.203125 97.675781 159.863281 99.292969 155.765625 101.382813 C 155.523438 101.5 155.535156 101.878906 155.703125 102.179688 C 156.546875 103.671875 158.4375 104.390625 159.84375 103.972656 C 161.414063 103.507813 162.042969 101.738281 163.265625 101 C 164.132813 100.472656 165.457031 102.554688 165.066406 103.734375 C 164.597656 105.140625 162.371094 107.359375 160.328125 108.066406 C 156.757813 109.296875 155.160156 103.878906 152.371094 102.503906 C 151.460938 102.054688 151.417969 103.871094 150.992188 105.171875 C 150.539063 106.691406 150.269531 108.832031 148.4375 108.042969 C 147.582031 107.59375 146.574219 106.707031 146.273438 105.742188 C 143.546875 107.195313 140.300781 109.074219 137.855469 108.226563 C 137.027344 107.710938 134.589844 105.808594 134.519531 103.957031 C 134.453125 102.058594 139.613281 94.519531 139.890625 92.605469 C 139.992188 91.894531 138.222656 92.394531 137.402344 92.289063 C 136.144531 92.128906 134.832031 92.472656 135.101563 91.546875 C 135.507813 90.160156 134.703125 89.398438 136.355469 89.105469 C 139.226563 88.597656 140.914063 89.722656 141.71875 88.238281 C 142.308594 86.390625 142.945313 84.613281 143.484375 83.421875 C 143.609375 83.167969 143.683594 82.84375 144.113281 82.71875 C 144.730469 82.539063 146.085938 83.453125 146.917969 84.34375 C 147.203125 84.742188 146.78125 85.296875 146.664063 85.5625 C 146.445313 86.074219 145.59375 87.453125 145.15625 88.519531 C 144.96875 89.15625 146.863281 88.976563 147.804688 88.914063 C 149.5625 88.808594 151.066406 88.652344 150.6875 89.734375 C 150.5625 90.09375 149.703125 91.683594 149.367188 91.738281 C 147.226563 92.089844 144.566406 92.226563 144.132813 92.445313 C 143.246094 92.886719 138.503906 104.644531 139.03125 104.769531 C 140.417969 105.101563 142.710938 104.109375 144.820313 102.671875 C 146.101563 101.851563 147.050781 101.523438 147.699219 101.527344 C 148.523438 99.996094 149.460938 98.496094 150.675781 95.785156 C 152.621094 91.171875 153.679688 87.597656 155.097656 84.035156 C 155.148438 83.902344 155.449219 83.21875 155.511719 83.121094 C 156.015625 82.34375 156.863281 82.726563 158.507813 84.035156 C 159.144531 84.542969 159.101563 84.875 158.871094 85.390625 C 158.769531 85.613281 158.390625 86.449219 158.253906 86.773438 Z M 166.0625 104.140625 C 165.738281 100.515625 166.214844 97.742188 169.472656 92.933594 C 171.253906 90.371094 172.839844 89.113281 174.910156 88.644531 C 177.734375 88.445313 181.238281 91.523438 181.429688 93.597656 C 181.800781 96.546875 179.214844 100.09375 177.910156 102.582031 C 176.867188 105.003906 178.292969 105.007813 180.183594 104.210938 C 181.363281 103.71875 182.992188 105.738281 182.316406 106.546875 C 180.726563 107.984375 178.957031 108.796875 177.378906 108.117188 C 176.375 107.417969 175.359375 105.6875 175.191406 105.929688 C 174.902344 106.347656 172.953125 108.457031 171.0625 108.355469 C 169.808594 108.394531 166.632813 106.296875 166.0625 104.140625 Z M 175.964844 98.167969 C 174.21875 101.789063 170.40625 105.210938 170.003906 104.675781 C 168.757813 103.023438 170.527344 98.695313 171.691406 96.652344 C 173.113281 94.160156 174.949219 90.167969 176.929688 91.464844 C 179.316406 93.023438 176.371094 97.320313 175.964844 98.167969 Z M 118.289063 104.921875 C 116.503906 100.585938 119.085938 95.136719 121.917969 91.925781 C 123.230469 90.4375 124.898438 88.253906 127.234375 88.6875 C 130.222656 89.242188 132.8125 90.96875 133.914063 94.128906 C 134.171875 99.027344 126.605469 108.746094 123.722656 108.449219 C 120.953125 108.230469 119.339844 106.507813 118.289063 104.921875 Z M 129.230469 91.65625 C 130.1875 92.679688 129.75 94.203125 129.492188 95.347656 C 127.535156 98.890625 125.601563 102.917969 122.023438 104.773438 C 121.449219 103.71875 121.511719 102.421875 121.859375 101.230469 C 122.394531 99.398438 126.6875 88.664063 129.230469 91.65625 Z M 71.808594 104.175781 C 71.4375 104.46875 71.023438 104.730469 70.550781 104.972656 C 67.644531 106.445313 64.769531 109.132813 61.347656 108.277344 C 60.765625 108.070313 57.746094 105.625 57.683594 103.773438 C 57.613281 101.878906 62.769531 93.964844 63.046875 92.050781 C 63.148438 91.339844 61.378906 91.84375 60.558594 91.738281 C 59.300781 91.574219 58.140625 91.960938 58.257813 90.996094 C 58.492188 89.785156 58.109375 88.804688 59.511719 88.554688 C 62.378906 88.042969 64.070313 89.167969 64.871094 87.6875 C 66.082031 85.515625 65.796875 85.492188 66.460938 83.449219 C 66.644531 82.941406 66.914063 82.71875 67.242188 82.753906 C 67.691406 82.796875 68.246094 82.929688 69.378906 83.582031 C 69.964844 83.953125 70.132813 84.363281 69.832031 84.875 C 69.691406 85.117188 69.515625 85.421875 69.292969 85.808594 C 68.382813 87.574219 69.105469 86.179688 68.257813 88.121094 C 68.070313 88.753906 70.019531 88.421875 70.960938 88.363281 C 72.71875 88.253906 74.222656 88.101563 73.84375 89.183594 C 73.71875 89.539063 72.855469 91.132813 72.523438 91.1875 C 70.382813 91.535156 67.257813 91.730469 66.71875 91.945313 C 65.585938 93.183594 62.375 102.058594 61.824219 104.101563 C 63.878906 104.242188 65.660156 102.863281 67.464844 102.132813 C 68.015625 101.90625 70.257813 100.785156 71.65625 100.324219 C 72.570313 97.183594 73.660156 94.371094 75.761719 91.988281 C 77.078125 90.5 78.742188 88.316406 81.078125 88.75 C 84.066406 89.304688 86.660156 91.03125 87.757813 94.191406 C 88.015625 99.089844 80.441406 108.695313 77.558594 108.394531 C 74.820313 108.699219 73.671875 106.917969 72.132813 104.984375 C 72.019531 104.707031 71.910156 104.4375 71.808594 104.175781 Z M 83.074219 91.71875 C 84.03125 92.523438 83.800781 93.988281 83.335938 95.410156 C 81.328125 100.097656 79.449219 102.980469 75.867188 104.835938 C 75.292969 103.78125 75.355469 102.484375 75.703125 101.292969 C 76.242188 99.460938 80.53125 88.730469 83.074219 91.71875 Z M 98.632813 86.417969 C 96.777344 90.925781 95.703125 92.027344 94.304688 96.6875 C 94.070313 97.464844 97.003906 96.332031 97.609375 95.84375 C 99.726563 94.351563 100.3125 93.792969 103.785156 90.511719 C 105.027344 89.4375 106.019531 91.25 106.4375 92.4375 C 106.476563 93.570313 105.746094 93.355469 104.710938 94.152344 C 100.578125 97.320313 100.242188 98.9375 96.144531 101.023438 C 95.902344 101.144531 95.914063 101.523438 96.082031 101.824219 C 96.921875 103.316406 98.816406 104.402344 100.222656 103.984375 C 101.789063 103.519531 102.421875 101.746094 103.640625 101.011719 C 104.507813 100.484375 105.835938 102.566406 105.441406 103.746094 C 104.976563 105.152344 102.792969 107.28125 100.75 107.984375 C 97.179688 109.21875 95.015625 103.429688 92.746094 102.148438 C 91.835938 101.699219 91.792969 103.515625 91.371094 104.816406 C 90.863281 106.363281 90.703125 109.019531 88.652344 107.945313 C 87.46875 107.324219 86.160156 105.609375 86.660156 104.265625 C 87.871094 101.007813 89.101563 99.777344 91.054688 95.429688 C 92.996094 90.816406 94.054688 87.242188 95.476563 83.679688 C 95.957031 82.480469 96.386719 82.296875 98.632813 83.863281 C 99.484375 84.527344 99.238281 85.101563 99 85.625 C 98.898438 85.847656 98.765625 86.101563 98.632813 86.417969 Z M 118.71875 88.632813 C 119.210938 88.8125 119.710938 90.261719 119.816406 90.9375 C 120.304688 93.253906 118.128906 93.117188 116.230469 94.472656 C 113.554688 96.234375 112.246094 100.328125 111.125 103.105469 C 110.816406 103.855469 110.527344 104.476563 110.09375 105.683594 C 109.574219 107.289063 109.984375 108.035156 108.839844 108.191406 C 107.445313 108.242188 106.097656 106.824219 106.132813 105.5 C 107.296875 99.402344 111.316406 94.015625 112.289063 88.882813 C 112.664063 87.433594 114.574219 88.734375 114.761719 89.636719 C 114.949219 90.195313 114.101563 91.914063 114.449219 91.925781 C 116.429688 89.886719 117.957031 87.960938 118.71875 88.632813 Z M 41.210938 108.308594 C 39.667969 107.761719 36.828125 105.210938 36.496094 103.441406 C 36.140625 101.539063 38.75 99.34375 40.648438 99.425781 C 41.277344 99.855469 42.367188 100.78125 42.480469 101.628906 C 42.398438 102.28125 41.546875 103.058594 40.410156 104.101563 C 41.625 105.660156 52.863281 98.472656 52.503906 95.976563 C 50.878906 95.34375 48.246094 96.582031 46.386719 96.597656 C 45.15625 96.609375 43.507813 95.539063 43.160156 93.699219 C 46.273438 87.503906 52.914063 83.085938 57.035156 82.625 C 58.289063 82.742188 59.371094 83.90625 59.507813 84.84375 C 59.535156 85.3125 58.820313 85.15625 57.589844 85.449219 C 53.789063 86.355469 50.136719 90.328125 49.394531 91.699219 C 49.238281 91.964844 49.273438 92.167969 49.523438 92.1875 C 51.175781 92.097656 53.460938 91.730469 54.773438 92.296875 C 55.804688 93.222656 56.917969 94.496094 57.191406 95.707031 C 55.753906 101.105469 45.675781 109.738281 41.210938 108.308594 "/>
<path style="fill:none;stroke-width:16.6721;stroke-linecap:round;stroke-linejoin:round;stroke:rgb(100%,100%,100%);stroke-opacity:1;stroke-miterlimit:2.6131;" d="M 276.132137 1045.614679 C 293.997621 1062.768374 324.910931 1055.085344 302.589113 1030.24862 C 331.976831 1046.983932 357.831599 1021.120268 319.169888 1005.031548 C 352.572321 1009.595724 353.85703 986.5086 335.068162 982.514946 C 368.269859 980.765345 363.371906 947.446861 334.907573 949.082357 C 363.211318 941.361293 357.510422 905.266268 333.422128 922.115684 C 346.028335 900.930301 333.060804 890.584835 308.169567 907.472286 C 336.272576 868.82893 313.187962 833.760844 297.932042 862.819431 C 300.943079 838.705368 282.595829 810.977999 263.686519 858.825777 C 266.737703 805.653127 220.488179 794.052514 227.473784 872.860619 C 208.403885 796.372636 165.928195 804.892432 186.88501 886.020659 C 180.341023 876.854273 177.209545 873.012758 169.581586 859.814682 C 150.993453 827.789381 114.740571 835.434376 151.0336 900.702092 C 109.119969 874.762359 100.327742 891.57374 117.109253 917.019021 C 81.57902 897.545204 81.378285 931.662419 110.565267 944.137833 C 75.195623 945.849399 80.575342 973.234455 125.018243 980.270893 C 95.148759 993.773247 91.134043 1013.931691 132.68635 1008.835028 C 105.105254 1024.010913 119.55823 1041.468886 157.938911 1031.579838 C 135.697386 1056.911014 159.625091 1075.700205 188.932515 1047.21214 C 183.592943 1075.73824 203.345344 1081.405425 216.593905 1058.280267 C 221.451711 1091.674821 248.751777 1091.9791 248.390452 1057.405467 C 264.08799 1086.616193 291.147173 1072.771526 276.132137 1045.614679 Z M 276.132137 1045.614679 " transform="matrix(0.0972983,0,0,-0.102702,0,193)"/>
<path style=" stroke:none;fill-rule:evenodd;fill:rgb(93.699646%,24.299622%,25.898743%);fill-opacity:1;" d="M 26.867188 85.613281 C 28.605469 83.851563 31.613281 84.640625 29.441406 87.191406 C 32.300781 85.472656 34.816406 88.128906 31.054688 89.777344 C 34.304688 89.3125 34.429688 91.683594 32.601563 92.09375 C 35.832031 92.273438 35.355469 95.699219 32.585938 95.527344 C 35.339844 96.324219 34.785156 100.027344 32.445313 98.296875 C 33.667969 100.472656 32.40625 101.535156 29.980469 99.800781 C 32.71875 103.769531 30.472656 107.371094 28.988281 104.386719 C 29.28125 106.863281 27.496094 109.710938 25.65625 104.796875 C 25.953125 110.257813 21.453125 111.449219 22.132813 103.355469 C 20.277344 111.210938 16.144531 110.335938 18.183594 102.003906 C 17.542969 102.945313 17.242188 103.339844 16.5 104.695313 C 14.691406 107.984375 11.164063 107.199219 14.695313 100.496094 C 10.617188 103.160156 9.761719 101.433594 11.394531 98.820313 C 7.9375 100.820313 7.917969 97.316406 10.757813 96.035156 C 7.316406 95.859375 7.839844 93.046875 12.164063 92.324219 C 9.257813 90.9375 8.867188 88.867188 12.910156 89.390625 C 10.226563 87.832031 11.632813 86.039063 15.367188 87.054688 C 13.203125 84.453125 15.53125 82.523438 18.382813 85.449219 C 17.863281 82.519531 19.785156 81.9375 21.074219 84.3125 C 21.546875 80.882813 24.203125 80.851563 24.167969 84.402344 C 25.695313 81.402344 28.328125 82.824219 26.867188 85.613281 "/>
<path style=" stroke:none;fill-rule:evenodd;fill:rgb(100%,100%,100%);fill-opacity:1;" d="M 25.929688 83.578125 C 26.160156 83.890625 26.183594 84.617188 25.472656 86.3125 C 24.757813 88.011719 23.871094 89.796875 23.59375 89.414063 C 23.316406 89.03125 23.496094 87.339844 24.140625 85.535156 C 24.789063 83.734375 25.699219 83.269531 25.929688 83.578125 "/>
<path style=" stroke:none;fill-rule:evenodd;fill:rgb(100%,100%,100%);fill-opacity:1;" d="M 22.582031 82.578125 C 23 82.652344 23.5 83.945313 23.347656 86.332031 C 23.195313 88.71875 22.503906 90.449219 22.085938 90.371094 C 21.910156 90.339844 21.738281 89.980469 21.605469 89.398438 C 21.589844 89.828125 21.519531 90.136719 21.398438 90.222656 C 21.023438 90.480469 20.207031 89.382813 19.582031 87.773438 C 18.957031 86.167969 18.746094 83.96875 19.121094 83.707031 C 19.496094 83.445313 20.398438 84.417969 21.023438 86.027344 C 21.171875 86.410156 21.292969 86.835938 21.386719 87.261719 C 21.378906 86.855469 21.386719 86.425781 21.417969 85.980469 C 21.566406 83.589844 22.160156 82.5 22.582031 82.578125 "/>
<path style=" stroke:none;fill-rule:evenodd;fill:rgb(100%,100%,100%);fill-opacity:1;" d="M 12.5625 87.640625 C 12.960938 87.046875 15.035156 87.269531 16.734375 88.535156 C 17.101563 88.808594 16.871094 88.589844 16.710938 88.335938 C 15.714844 86.734375 14.933594 85.199219 15.433594 84.851563 C 15.9375 84.503906 17.484375 85.324219 18.480469 86.921875 C 19.476563 88.523438 19.550781 90.308594 19.050781 90.65625 C 18.898438 90.761719 18.710938 90.734375 18.496094 90.601563 C 18.847656 91.308594 18.929688 91.929688 18.726563 92.230469 C 18.507813 92.558594 18.003906 92.371094 17.3125 91.929688 C 17.46875 92.191406 17.519531 92.410156 17.453125 92.546875 C 17.214844 93.007813 15.605469 92.621094 13.761719 91.980469 C 11.917969 91.34375 10.527344 90.6875 10.761719 90.226563 C 10.992188 89.769531 12.8125 89.359375 14.640625 89.976563 C 13.253906 88.949219 12.21875 88.152344 12.5625 87.640625 "/>
<path style=" stroke:none;fill-rule:evenodd;fill:rgb(100%,100%,100%);fill-opacity:1;" d="M 11.476563 100.855469 C 11.160156 100.265625 12.601563 98.472656 14.292969 97.453125 C 15.988281 96.433594 18.359375 96.125 18.679688 96.714844 C 19 97.308594 17.011719 98.21875 15.316406 99.238281 C 13.625 100.257813 11.796875 101.449219 11.476563 100.855469 "/>
<path style=" stroke:none;fill-rule:evenodd;fill:rgb(100%,100%,100%);fill-opacity:1;" d="M 9.28125 98.464844 C 9 98.007813 10.417969 96.320313 12.417969 95.417969 C 10.695313 95.445313 9.1875 95.183594 9.128906 94.679688 C 9.054688 94.058594 11 93.105469 13.171875 92.898438 C 15.339844 92.695313 17.542969 93.65625 17.617188 94.277344 C 17.65625 94.597656 17.179688 94.820313 16.414063 94.988281 C 17.015625 95.09375 17.441406 95.261719 17.542969 95.429688 C 17.816406 95.878906 15.488281 96 13.53125 97.078125 C 11.574219 98.152344 9.570313 98.929688 9.28125 98.464844 "/>
<path style=" stroke:none;fill-rule:evenodd;fill:rgb(100%,100%,100%);fill-opacity:1;" d="M 18.917969 108.082031 C 18.402344 107.789063 18.191406 103.90625 18.84375 101.21875 C 19.492188 98.53125 20.765625 97.886719 21.277344 98.179688 C 21.792969 98.46875 22.21875 100.09375 21.570313 102.78125 C 20.917969 105.46875 19.429688 108.371094 18.917969 108.082031 "/>
<path style=" stroke:none;fill-rule:evenodd;fill:rgb(100%,100%,100%);fill-opacity:1;" d="M 23.808594 108.414063 C 23.089844 108.398438 23.222656 105.078125 22.730469 102.515625 C 22.234375 99.949219 22.105469 98.640625 23.21875 98.453125 C 24.328125 98.265625 25.300781 100.664063 25.371094 102.824219 C 25.445313 104.984375 24.894531 108.453125 23.808594 108.414063 "/>
<path style=" stroke:none;fill-rule:evenodd;fill:rgb(100%,100%,100%);fill-opacity:1;" d="M 14.261719 105.777344 C 14.835938 106.125 16.113281 103.4375 17.566406 101.65625 C 19.023438 99.878906 19.417969 98.699219 18.871094 98.207031 C 18.324219 97.710938 16.304688 98.90625 15.347656 100.578125 C 14.390625 102.25 13.386719 105.265625 14.261719 105.777344 "/>
<path style=" stroke:none;fill-rule:evenodd;fill:rgb(100%,100%,100%);fill-opacity:1;" d="M 31.769531 87.652344 C 31.476563 87.078125 30.671875 86.84375 29.15625 87.828125 C 27.640625 88.8125 25.785156 90.746094 26.035156 91.34375 C 26.289063 91.9375 27.9375 90.289063 29.824219 89.53125 C 31.707031 88.777344 32.058594 88.226563 31.769531 87.652344 "/>
<path style=" stroke:none;fill-rule:evenodd;fill:rgb(100%,100%,100%);fill-opacity:1;" d="M 29.382813 85.667969 C 29.402344 84.890625 28.03125 84.902344 26.558594 86.429688 C 25.085938 87.957031 23.980469 90.085938 24.457031 90.601563 C 24.9375 91.117188 26.859375 88.972656 27.90625 87.882813 C 28.953125 86.789063 29.367188 86.445313 29.382813 85.667969 "/>
<path style=" stroke:none;fill-rule:evenodd;fill:rgb(100%,100%,100%);fill-opacity:1;" d="M 32.675781 90.453125 C 32.324219 90.113281 30.632813 90.019531 28.949219 90.695313 C 27.265625 91.375 25.902344 92.230469 26.257813 92.570313 C 26.613281 92.90625 28.75 92.511719 30.949219 91.777344 C 33.148438 91.042969 33.03125 90.792969 32.675781 90.453125 "/>
<path style=" stroke:none;fill-rule:evenodd;fill:rgb(100%,100%,100%);fill-opacity:1;" d="M 33.933594 94.027344 C 34.109375 93.570313 33.566406 92.683594 32.21875 92.683594 C 30.871094 92.683594 27.777344 93.3125 27.777344 93.855469 C 27.777344 94.394531 30.753906 94.601563 32.03125 94.558594 C 33.3125 94.515625 33.757813 94.480469 33.933594 94.027344 "/>
<path style=" stroke:none;fill-rule:evenodd;fill:rgb(100%,100%,100%);fill-opacity:1;" d="M 32.183594 99.796875 C 32.453125 99.316406 32.238281 98.394531 31.050781 97.53125 C 32.890625 98.15625 33.566406 98.523438 33.816406 98.058594 C 34.089844 97.5625 33.523438 96.238281 31.34375 95.527344 C 29.160156 94.816406 26.898438 95.273438 26.628906 95.773438 C 26.527344 95.957031 26.75 96.128906 27.179688 96.308594 C 26.765625 96.339844 26.464844 96.453125 26.359375 96.640625 C 26.050781 97.195313 27.902344 97.90625 29.621094 98.867188 C 31.34375 99.832031 31.878906 100.351563 32.183594 99.796875 "/>
<path style=" stroke:none;fill-rule:evenodd;fill:rgb(100%,100%,100%);fill-opacity:1;" d="M 27.957031 106.167969 C 28.402344 105.90625 28.511719 103.230469 27.757813 101.292969 C 27.746094 101.269531 27.738281 101.246094 27.730469 101.222656 C 27.824219 101.351563 27.917969 101.484375 28.011719 101.621094 C 29.265625 103.484375 29.699219 104.625 30.285156 104.1875 C 30.871094 103.75 30.972656 102.109375 29.714844 100.242188 C 28.460938 98.378906 26.105469 97.5 25.519531 97.941406 C 25.234375 98.15625 25.523438 98.59375 26.042969 99.207031 C 25.691406 99.046875 25.386719 99.035156 25.210938 99.136719 C 24.765625 99.402344 25.621094 101.457031 26.109375 102.910156 C 26.804688 104.996094 27.503906 106.433594 27.957031 106.167969 "/>
<path style=" stroke:none;fill-rule:evenodd;fill:rgb(100%,83.499146%,12.5%);fill-opacity:1;" d="M 22.410156 97.769531 C 27.507813 98.277344 27.824219 92.011719 22.875 91.132813 C 18.199219 90.542969 15.929688 96.523438 22.410156 97.769531 "/>
</g>
</svg>
