<svg xmlns="http://www.w3.org/2000/svg" viewBox="0 0 99.64 99.64"><g data-name="Warstwa 2"><g data-name="Warstwa 1"><path fill="#d6171a" d="M0 0h99.64v99.64H0z"/><path d="M58.25 66.5H55.4a.23.23 0 00-.25.19v16.19a.23.23 0 00.25.19h2.85a.23.23 0 00.25-.19V66.69a.23.23 0 00-.25-.19m22.62-42.65l5.85-6.67c.15-.17 0-.37-.2-.37h-3a.46.46 0 00-.2.09L77 24.07V17a.23.23 0 00-.25-.19h-2.87a.23.23 0 00-.25.19v16.19a.23.23 0 00.25.19h2.87a.23.23 0 00.25-.19v-4.93l1.54-1.76 4.93 6.79a.46.46 0 00.2.09h3.75c.23 0 .36-.2.2-.37zM19.77 49H17.2v-4.35h2.57c.53 0 2.62.3 2.62 2.12S20.5 49 19.77 49m3.39 2.24a5.23 5.23 0 002.58-4.69c0-4.87-5-4.92-6-4.92h-5.66a.21.21 0 00-.23.19V58a.22.22 0 00.23.19H17a.23.23 0 00.2-.19v-6h2a7.42 7.42 0 014 6 .17.17 0 00.17.15h3a.16.16 0 00.17-.16 10.74 10.74 0 00-3.41-6.8m25 4V44.57c3.8-.18 6.62.93 6.62 5.31 0 5.08-4.51 5.46-6.62 5.37m-.26-13.61H45c-.15 0-.25.09-.25.19V58a.23.23 0 00.25.19h2.84c4.36 0 10.22-1.3 10.22-8.33 0-7.29-6-8.24-10.22-8.24m-6.73 13.51h-7.87v-3.74h6a.21.21 0 00.22-.19v-2.62a.21.21 0 00-.22-.19h-6v-3.74h7.65a.23.23 0 00.25-.19v-2.63c0-.1-.1-.19-.25-.19H30.12c-.15 0-.25.09-.25.19V58a.23.23 0 00.25.19h11c.16 0 .26-.1.26-.19v-2.7c0-.09-.1-.19-.26-.19m10 11.37h-2.89c-.16 0-.26.1-.26.19v6.46h-6.59v-6.44a.23.23 0 00-.25-.19h-2.85a.23.23 0 00-.25.19v16.19a.23.23 0 00.25.19h2.85a.23.23 0 00.25-.19v-6.72H48v6.72c0 .09.1.19.26.19h2.84a.22.22 0 00.22-.19V66.69a.22.22 0 00-.22-.19m18.22-37.25a5.58 5.58 0 01-3.62 1.31 5.18 5.18 0 01-5.42-5.39 5.23 5.23 0 015.42-5.56 5.65 5.65 0 013.48 1.21.2.2 0 00.31-.08c.27-.78.64-1.86.93-2.72a.17.17 0 00-.08-.21 9.2 9.2 0 00-4.64-1.23c-5.17 0-8.82 3.64-8.82 8.59 0 5.16 4 8.45 8.82 8.45a9.17 9.17 0 004.8-1.34.17.17 0 00.08-.2c-.27-.78-.64-1.88-1-2.75a.19.19 0 00-.31-.08M86.74 80h-7.87v-3.75h6a.21.21 0 00.22-.19v-2.62a.21.21 0 00-.22-.19h-6v-3.74h7.65a.23.23 0 00.25-.19v-2.63a.23.23 0 00-.25-.19H75.75a.23.23 0 00-.25.19v16.19a.23.23 0 00.25.19h11c.16 0 .26-.1.26-.19v-2.7c0-.09-.1-.19-.26-.19m-66.9-49.64H17.2v-3.69h2.65s2.84-.14 2.84 1.82c0 1.59-1.74 1.87-2.84 1.87M17.2 19.77h2.65s2.59-.1 2.59 1.89c0 1.82-2.59 1.9-2.59 1.9H17.2zm6.17 5.33a3.71 3.71 0 002.45-3.64c0-4.85-6-4.65-6-4.65h-5.71c-.16 0-.25.1-.25.19v16.19c0 .09.09.19.25.19h5.74c1.18 0 6.21-.21 6.21-4.83a3.61 3.61 0 00-2.69-3.45M35 66.5h-3a.23.23 0 00-.22.12l-3.55 10-2.78-10a.25.25 0 00-.23-.12H22a.2.2 0 00-.2.12L19 76.59l-3.5-10a.25.25 0 00-.23-.12H12.2c-.17 0-.3.12-.23.26L17.77 83a.15.15 0 00.16.11h2.14a.18.18 0 00.16-.11l3.36-11.72L27 83a.18.18 0 00.16.11h2.12a.16.16 0 00.16-.11l5.82-16.2c.07-.14 0-.26-.2-.26m11.05-37.76l2.66-6.85 2.65 6.85zm8.66 0L51 19.07l-.84-2.15a.21.21 0 00-.18-.11H47.6a.18.18 0 00-.17.11l-.85 2.15-3.82 9.71-.17.43-1.54 3.91c-.08.14 0 .26.25.26h3.36a.28.28 0 00.25-.12l.74-1.75h6.21l.79 1.75a.26.26 0 00.22.12h3.57a.11.11 0 00.11-.16zM72 66.5H62a.23.23 0 00-.25.19v2.46c0 .1.1.17.25.17h3.35v13.55c0 .1.08.19.23.19h2.84c.15 0 .23-.09.23-.19V69.32H72c.15 0 .25-.07.25-.17v-2.46a.23.23 0 00-.25-.19M38.61 30.33h-6.07V17a.23.23 0 00-.25-.19h-2.84c-.16 0-.26.1-.26.19v16.19c0 .09.1.19.26.19h9.16a.23.23 0 00.25-.19v-2.67c0-.1-.1-.19-.25-.19" fill="#fff"/></g></g></svg>